<svg width="80" height="80" viewBox="0 0 80 80" fill="none" xmlns="http://www.w3.org/2000/svg">
<circle cx="40" cy="40" r="39.2" stroke="#9E9E9E" stroke-width="1.6"/>
<g clip-path="url(#clip0_819_218)">
<path d="M42.125 55.9375H37.0005C36.1445 55.9375 35.4482 55.2412 35.4482 54.3853V42.8267H32.4585C31.6025 42.8267 30.9062 42.1301 30.9062 41.2744V36.3215C30.9062 35.4656 31.6025 34.7693 32.4585 34.7693H35.4482V32.2891C35.4482 29.8298 36.2205 27.7375 37.6812 26.2388C39.1484 24.7332 41.199 23.9375 43.6111 23.9375L47.5193 23.9438C48.3738 23.9453 49.0689 24.6416 49.0689 25.4961V30.0947C49.0689 30.9507 48.3728 31.647 47.5171 31.647L44.8857 31.648C44.0833 31.648 43.8789 31.8088 43.8352 31.8582C43.7632 31.9399 43.6775 32.1711 43.6775 32.8096V34.769H47.3193C47.5935 34.769 47.8591 34.8367 48.0874 34.9641C48.5798 35.2393 48.886 35.7595 48.886 36.3218L48.884 41.2747C48.884 42.1301 48.1877 42.8264 47.3318 42.8264H43.6775V54.3853C43.6775 55.2412 42.981 55.9375 42.125 55.9375ZM37.3242 54.0615H41.8013V41.9868C41.8013 41.4153 42.2664 40.9504 42.8376 40.9504H47.0081L47.0098 36.6453H42.8374C42.2661 36.6453 41.8013 36.1804 41.8013 35.6089V32.8096C41.8013 32.0767 41.8757 31.2432 42.429 30.6167C43.0974 29.8594 44.1509 29.772 44.8853 29.772L47.1929 29.771V25.8193L43.6096 25.8135C39.7332 25.8135 37.3242 28.2949 37.3242 32.2891V35.6089C37.3242 36.1802 36.8594 36.6453 36.2881 36.6453H32.7822V40.9504H36.2881C36.8594 40.9504 37.3242 41.4153 37.3242 41.9868V54.0615Z" fill="white"/>
</g>
<defs>
<clipPath id="clip0_819_218">
<rect width="31.9375" height="32" fill="white" transform="translate(24 24)"/>
</clipPath>
</defs>
</svg>
