<svg width="81" height="80" viewBox="0 0 81 80" fill="none" xmlns="http://www.w3.org/2000/svg">
<circle cx="40.5996" cy="40" r="39.2" stroke="#9E9E9E" stroke-width="1.6"/>
<g clip-path="url(#clip0_819_199)">
<path d="M49.0996 56H32.0996C27.9641 56 24.5996 52.6355 24.5996 48.5V31.5C24.5996 27.3645 27.9641 24 32.0996 24H49.0996C53.2351 24 56.5996 27.3645 56.5996 31.5V48.5C56.5996 52.6355 53.2351 56 49.0996 56ZM32.0996 26.5C29.3426 26.5 27.0996 28.743 27.0996 31.5V48.5C27.0996 51.257 29.3426 53.5 32.0996 53.5H49.0996C51.8566 53.5 54.0996 51.257 54.0996 48.5V31.5C54.0996 28.743 51.8566 26.5 49.0996 26.5H32.0996ZM49.4121 29.625C48.5492 29.625 47.8496 30.3246 47.8496 31.1875C47.8496 32.0504 48.5492 32.75 49.4121 32.75C50.275 32.75 50.9746 32.0504 50.9746 31.1875C50.9746 30.3246 50.275 29.625 49.4121 29.625ZM40.5996 48.125C36.1194 48.125 32.4746 44.4802 32.4746 40C32.9209 29.2211 48.28 29.2242 48.7246 40.0001C48.7246 44.4802 45.0798 48.125 40.5996 48.125ZM40.5996 34.375C37.498 34.375 34.9746 36.8984 34.9746 40C35.2836 47.4623 45.9167 47.4601 46.2246 39.9999C46.2246 36.8984 43.7012 34.375 40.5996 34.375Z" fill="white"/>
</g>
<defs>
<clipPath id="clip0_819_199">
<rect width="32" height="32" fill="white" transform="translate(24.5996 24)"/>
</clipPath>
</defs>
</svg>
