<svg width="81" height="80" viewBox="0 0 81 80" fill="none" xmlns="http://www.w3.org/2000/svg">
<circle cx="40.8008" cy="40" r="39.2" stroke="#9E9E9E" stroke-width="1.6"/>
<g clip-path="url(#clip0_819_209)">
<path d="M25.2852 55.8742H33.5708V34.0859H25.2852V55.8742ZM27.1602 35.9609H31.6958V53.9992H27.1602V35.9609Z" fill="white"/>
<path d="M29.4281 24.1289C26.8744 24.1289 24.7969 26.2065 24.7969 28.7601C24.7969 31.3137 26.8744 33.3913 29.4281 33.3913C31.9818 33.3913 34.0593 31.3138 34.0593 28.7601C34.0593 26.2064 31.9817 24.1289 29.4281 24.1289ZM26.6719 28.7601C26.6719 27.2403 27.9082 26.0039 29.4281 26.0039C30.9479 26.0039 32.1843 27.2403 32.1843 28.7601C32.1843 30.2799 30.9479 31.5163 29.4281 31.5163C27.9082 31.5163 26.6719 30.2798 26.6719 28.7601Z" fill="white"/>
<path d="M56.7757 40.927C56.4808 36.686 52.9433 33.418 48.5576 33.418C46.596 33.418 44.7441 34.1 43.2851 35.3101V34.0851H35.3457V55.8734H43.6315V43.9569C43.6315 42.6139 44.724 41.5213 46.0671 41.5213C47.41 41.5213 48.5026 42.6139 48.5026 43.9575L48.5106 55.8735H56.7958V40.9471L56.7757 40.927ZM41.7565 53.9985H37.2207V35.9602H41.41V38.6381L42.9103 38.6467L43.1891 38.214C44.3672 36.3849 46.3741 35.293 48.5576 35.293C52.0474 35.293 54.8416 37.9557 54.9189 41.3546L54.9208 53.9985H50.3844L50.3776 43.9569C50.3776 41.58 48.4439 39.6463 46.0671 39.6463C43.6902 39.6463 41.7565 41.58 41.7565 43.9569V53.9985Z" fill="white"/>
</g>
<defs>
<clipPath id="clip0_819_209">
<rect width="32" height="32" fill="white" transform="translate(24.8008 24)"/>
</clipPath>
</defs>
</svg>
