<svg width="81" height="80" viewBox="0 0 81 80" fill="none" xmlns="http://www.w3.org/2000/svg">
<circle cx="40.4004" cy="40" r="39.2" stroke="#9E9E9E" stroke-width="1.6"/>
<g clip-path="url(#clip0_819_214)">
<path d="M47.4228 38.8314C47.2842 38.7649 47.1443 38.7014 47.0031 38.6408C46.7561 34.0897 44.2693 31.4842 40.0937 31.4575C37.6844 31.4415 35.5278 32.4239 34.1837 34.4634L36.4801 36.0388C37.4353 34.5897 38.9342 34.2808 40.0381 34.2808C40.0508 34.2808 40.0636 34.2808 40.0763 34.281C41.4511 34.2897 42.4886 34.6894 43.1601 35.469C43.6488 36.0365 43.9757 36.8209 44.1375 37.8107C42.9185 37.6034 41.6001 37.5398 40.1908 37.6205C36.2208 37.8493 33.6685 40.1647 33.8399 43.382C33.9269 45.014 34.7399 46.418 36.1291 47.3352C37.3037 48.1105 38.8165 48.4896 40.3887 48.4038C42.465 48.29 44.0937 47.4978 45.2301 46.0493C46.0932 44.9494 46.639 43.5238 46.88 41.7277C47.8695 42.3248 48.6028 43.1107 49.0078 44.0553C49.6965 45.6612 49.7366 48.3 47.5834 50.4513C45.697 52.336 43.4293 53.1513 40.0022 53.1765C36.2007 53.1483 33.3256 51.9292 31.4563 49.5528C29.7059 47.3276 28.8012 44.1136 28.7675 40C28.8012 35.8863 29.7059 32.6722 31.4563 30.4471C33.3256 28.0708 36.2006 26.8516 40.0022 26.8235C43.8313 26.8519 46.7565 28.0769 48.6973 30.4647C49.649 31.6356 50.3665 33.1082 50.8395 34.8251L53.5306 34.107C52.9573 31.9937 52.0552 30.1726 50.8274 28.6624C48.3394 25.6012 44.7004 24.0325 40.0116 24H39.9928C35.3136 24.0324 31.7153 25.607 29.298 28.6798C27.147 31.4144 26.0374 35.2193 26.0001 39.9887L26 40L26.0001 40.0112C26.0374 44.7807 27.147 48.5856 29.298 51.3202C31.7153 54.393 35.3136 55.9677 39.9928 56H40.0116C44.1716 55.9711 47.104 54.882 49.5197 52.4684C52.6801 49.311 52.585 45.3532 51.5433 42.9235C50.796 41.1812 49.3711 39.766 47.4228 38.8314ZM40.2401 45.5845C38.5001 45.6825 36.6924 44.9014 36.6033 43.2286C36.5372 41.9883 37.486 40.6043 40.3468 40.4395C40.6745 40.4206 40.996 40.4113 41.3118 40.4113C42.351 40.4113 43.3231 40.5122 44.207 40.7055C43.8774 44.8225 41.9437 45.491 40.2401 45.5845Z" fill="white"/>
</g>
<defs>
<clipPath id="clip0_819_214">
<rect width="27.5306" height="32" fill="white" transform="translate(26 24)"/>
</clipPath>
</defs>
</svg>
