<svg width="81" height="80" viewBox="0 0 81 80" fill="none" xmlns="http://www.w3.org/2000/svg">
<circle cx="40.1992" cy="40" r="39.2" stroke="#9E9E9E" stroke-width="1.6"/>
<path d="M53.2451 31.0291C49.8862 31.0291 47.1536 28.2964 47.1536 24.9375C47.1536 24.4197 46.7336 24 46.2161 24H41.1951C40.6772 24 40.2576 24.4197 40.2576 24.9375V45.5229C40.2576 47.4976 38.6511 49.104 36.6763 49.104C34.7017 49.104 33.0952 47.4976 33.0952 45.5229C33.0952 43.5481 34.7017 41.9417 36.6763 41.9417C37.1941 41.9417 37.6138 41.522 37.6138 41.0042V35.9832C37.6138 35.4656 37.1941 35.0457 36.6763 35.0457C30.8992 35.0457 26.1992 39.7458 26.1992 45.5229C26.1992 51.3 30.8992 56 36.6763 56C42.4534 56 47.1536 51.3 47.1536 45.5229V36.4109C49.0195 37.4058 51.0957 37.925 53.2451 37.925C53.7629 37.925 54.1826 37.5054 54.1826 36.9875V31.9666C54.1826 31.449 53.7629 31.0291 53.2451 31.0291ZM52.3076 36.0112C50.3062 35.8447 48.4055 35.1455 46.7634 33.9644C46.478 33.7588 46.1016 33.7305 45.7883 33.8911C45.4753 34.0513 45.2786 34.3735 45.2786 34.7253V45.5229C45.2786 50.2661 41.4194 54.125 36.6763 54.125C31.9331 54.125 28.0742 50.2661 28.0742 45.5229C28.0742 41.0964 31.4351 37.4399 35.7388 36.9714V40.1472C33.1753 40.593 31.2202 42.8337 31.2202 45.5229C31.2202 48.5315 33.6677 50.9792 36.6763 50.9792C39.6851 50.9792 42.1326 48.5315 42.1326 45.5229V25.875H45.3333C45.7627 29.52 48.6626 32.4199 52.3076 32.8494V36.0112Z" fill="white"/>
</svg>
