<svg width="80" height="80" viewBox="0 0 80 80" fill="none" xmlns="http://www.w3.org/2000/svg">
<circle cx="40" cy="40" r="39.2" stroke="#9E9E9E" stroke-width="1.6"/>
<g clip-path="url(#clip0_819_194)">
<path d="M44.925 38.5606L37.8555 34.6924C37.449 34.47 36.9685 34.4783 36.5701 34.7144C36.1714 34.9507 35.9336 35.3682 35.9336 35.8315V43.5015C35.9336 43.9627 36.1699 44.3794 36.5659 44.616C36.7727 44.7395 37.002 44.8015 37.2317 44.8015C37.4421 44.8015 37.6531 44.7495 37.8472 44.645L44.917 40.8435C45.3367 40.6177 45.5986 40.1814 45.6006 39.7046C45.6023 39.2278 45.3435 38.7896 44.925 38.5606ZM37.8088 42.5366V36.8042L43.0925 39.6953L37.8088 42.5366Z" fill="white"/>
<path d="M55.7646 33.5955L55.7632 33.5808C55.7361 33.3232 55.4663 31.0322 54.3525 29.8669C53.0652 28.4963 51.6057 28.3298 50.9038 28.25C50.8457 28.2434 50.7925 28.2373 50.7449 28.231L50.689 28.2251C46.4585 27.9175 40.0696 27.8755 40.0056 27.8752L40 27.875L39.9944 27.8752C39.9304 27.8755 33.5415 27.9175 29.2729 28.2251L29.2166 28.231C29.1711 28.2371 29.1211 28.2427 29.0667 28.249C28.3728 28.3291 26.929 28.4958 25.6379 29.916C24.5771 31.0688 24.2705 33.3108 24.239 33.5627L24.2354 33.5955C24.2258 33.7026 24 36.2542 24 38.8157V41.2102C24 43.7717 24.2258 46.3232 24.2354 46.4307L24.2371 46.4468C24.2642 46.7002 24.5337 48.9492 25.6423 50.115C26.8528 51.4397 28.3833 51.615 29.2065 51.7092C29.3367 51.7241 29.4487 51.7368 29.5251 51.7502L29.5991 51.7605C32.0417 51.9929 39.7002 52.1074 40.0249 52.1121L40.0347 52.1123L40.0444 52.1121C40.1084 52.1118 46.4971 52.0698 50.7275 51.7622L50.7834 51.7564C50.8369 51.7493 50.897 51.7429 50.9629 51.7361C51.6528 51.6628 53.0889 51.5107 54.3621 50.1099C55.4229 48.9568 55.7297 46.7148 55.761 46.4631L55.7646 46.4304C55.7742 46.323 56.0002 43.7717 56.0002 41.2102V38.8157C56 36.2542 55.7742 33.7029 55.7646 33.5955ZM54.1248 41.2102C54.1248 43.5811 53.9177 46.0227 53.8982 46.2468C53.8186 46.8643 53.4951 48.2827 52.9783 48.8445C52.1814 49.7212 51.3628 49.8081 50.7651 49.8713C50.6929 49.8789 50.626 49.8862 50.5654 49.8938C46.4736 50.1897 40.3259 50.2351 40.0427 50.2368C39.7251 50.2322 32.1787 50.1167 29.8105 49.8967C29.6892 49.877 29.5581 49.8618 29.4199 49.8462C28.719 49.7659 27.7595 49.656 27.0217 48.8445L27.0044 48.8259C26.4966 48.2969 26.1824 46.9705 26.1025 46.2542C26.0876 46.0847 25.8752 43.6143 25.8752 41.2102V38.8157C25.8752 36.4475 26.0818 34.0085 26.1018 33.7798C26.1968 33.0525 26.5264 31.72 27.0217 31.1814C27.843 30.2781 28.709 30.178 29.2817 30.1118C29.3364 30.1055 29.3875 30.0996 29.4346 30.0935C33.5859 29.7961 39.7778 29.752 40 29.7502C40.2222 29.7517 46.4119 29.7961 50.5264 30.0935C50.5769 30.0999 50.6321 30.1062 50.6914 30.113C51.2805 30.1802 52.1709 30.2817 52.988 31.1533L52.9956 31.1614C53.5034 31.6904 53.8176 33.04 53.8975 33.7708C53.9116 33.9307 54.1248 36.4065 54.1248 38.8157V41.2102Z" fill="white"/>
</g>
<defs>
<clipPath id="clip0_819_194">
<rect width="32.0001" height="32" fill="white" transform="translate(24 24)"/>
</clipPath>
</defs>
</svg>
