<svg width="50" height="50" viewBox="0 0 50 50" fill="none" xmlns="http://www.w3.org/2000/svg">
<circle cx="25" cy="25" r="24.5" stroke="#9E9E9E"/>
<path d="M19.0427 28.2947C20.9988 30.6527 23.3535 32.5093 26.041 33.823C27.0643 34.3121 28.4327 34.8923 29.9573 34.9917C30.0518 34.9959 30.1422 35 30.2367 35C31.26 35 32.0818 34.6436 32.7517 33.9101C32.7558 33.9059 32.764 33.8976 32.7681 33.8893C33.0065 33.5993 33.2777 33.3382 33.5612 33.0605C33.7544 32.874 33.9516 32.6792 34.1406 32.4803C35.0159 31.5603 35.0159 30.3916 34.1324 29.5006L31.6627 27.0099C31.2435 26.5707 30.7422 26.3386 30.2162 26.3386C29.6902 26.3386 29.1847 26.5707 28.7532 27.0058L27.2821 28.4894C27.1465 28.4107 27.0067 28.3402 26.8752 28.2739C26.7109 28.191 26.5588 28.1123 26.4232 28.0253C25.0835 27.1674 23.8672 26.0485 22.7042 24.6104C22.1166 23.8603 21.7221 23.2304 21.4467 22.5881C21.833 22.2358 22.1946 21.867 22.5439 21.5064C22.6672 21.378 22.7946 21.2495 22.922 21.121C23.3658 20.6734 23.6042 20.1554 23.6042 19.6291C23.6042 19.1028 23.3699 18.5847 22.922 18.1372L21.6974 16.9022C21.5536 16.7571 21.418 16.6162 21.2782 16.4712C21.007 16.1894 20.7235 15.8993 20.444 15.6382C20.0208 15.2196 19.5235 15 18.9975 15C18.4756 15 17.9743 15.2196 17.5346 15.6424L15.9977 17.1923C15.4388 17.7559 15.1224 18.4397 15.0566 19.2312C14.9785 20.2217 15.1594 21.2743 15.6278 22.5466C16.347 24.5151 17.4319 26.3427 19.0427 28.2947ZM16.0593 19.3183C16.1086 18.7671 16.3182 18.3071 16.7127 17.9092L18.2414 16.3676C18.4798 16.1355 18.7428 16.0153 18.9975 16.0153C19.2482 16.0153 19.503 16.1355 19.7372 16.3759C20.0126 16.6328 20.2714 16.9022 20.5509 17.1881C20.6906 17.3332 20.8344 17.4782 20.9783 17.6274L22.2029 18.8624C22.4576 19.1194 22.5891 19.3804 22.5891 19.6374C22.5891 19.8943 22.4576 20.1554 22.2029 20.4124C22.0755 20.5408 21.9481 20.6734 21.8207 20.8019C21.4385 21.1915 21.081 21.5603 20.6865 21.9126C20.6783 21.9208 20.6742 21.925 20.6659 21.9333C20.3249 22.2772 20.3783 22.6046 20.4605 22.8533C20.4646 22.8657 20.4687 22.874 20.4728 22.8864C20.7892 23.6531 21.2289 24.3825 21.9152 25.2528C23.148 26.7862 24.4466 27.9755 25.8767 28.8914C26.0534 29.0075 26.2424 29.0986 26.4191 29.1898C26.5835 29.2727 26.7355 29.3514 26.8711 29.4385C26.8876 29.4467 26.8999 29.455 26.9163 29.4633C27.0519 29.5338 27.1834 29.5669 27.3149 29.5669C27.6437 29.5669 27.8574 29.3556 27.9272 29.2851L29.4642 27.7352C29.7025 27.4948 29.9614 27.3663 30.2162 27.3663C30.5285 27.3663 30.7833 27.5611 30.9435 27.7352L33.4215 30.23C33.9146 30.7273 33.9105 31.2661 33.4092 31.7924C33.2366 31.9789 33.0558 32.1571 32.8626 32.3436C32.575 32.6254 32.275 32.9155 32.0038 33.2429C31.5312 33.7567 30.9682 33.9971 30.2408 33.9971C30.171 33.9971 30.097 33.993 30.0271 33.9888C28.6793 33.9018 27.4259 33.3713 26.4848 32.9196C23.9288 31.6722 21.6851 29.9026 19.8235 27.6564C18.2907 25.7957 17.2593 24.0634 16.5771 22.2068C16.1538 21.0671 15.9936 20.1513 16.0593 19.3183Z" fill="white"/>
</svg>
