<svg width="100" height="100" viewBox="0 0 100 100" fill="none" xmlns="http://www.w3.org/2000/svg">
<rect width="100" height="100" fill="black"/>
<path d="M20.9989 70V34.1061H33.6702C36.0471 34.1061 38.1349 34.5557 39.9336 35.4551C41.7323 36.3545 43.1295 37.6393 44.1252 39.3095C45.153 40.9797 45.667 42.939 45.667 45.1874C45.667 47.7249 45.0246 49.8769 43.7398 51.6435C42.455 53.4101 40.7205 54.6788 38.5364 55.4497L46.8715 70H41.379L32.6102 54.4379L35.7419 56.2688H25.7205V70H20.9989ZM25.7205 51.9326H33.8147C35.228 51.9326 36.4646 51.6596 37.5246 51.1135C38.5845 50.5675 39.4036 49.7806 39.9818 48.7527C40.592 47.7249 40.8972 46.5364 40.8972 45.1874C40.8972 43.8063 40.592 42.6178 39.9818 41.6221C39.4036 40.5943 38.5845 39.8073 37.5246 39.2613C36.4646 38.7153 35.228 38.4422 33.8147 38.4422H25.7205V51.9326ZM52.2405 70V34.1061H56.9621V50.1018H74.9332V34.1061H79.703V70H74.9332V54.4379H56.9621V70H52.2405Z" fill="white"/>
</svg>
