<svg width="212" height="24" viewBox="0 0 212 24" fill="none" xmlns="http://www.w3.org/2000/svg">
<path d="M0 23.2923V0.369232H8.52308C10.082 0.369232 11.4564 0.656414 12.6462 1.23077C13.8564 1.78462 14.8 2.60513 15.4769 3.69231C16.1538 4.75897 16.4923 6.06154 16.4923 7.6C16.4923 9.17952 16.1128 10.5231 15.3538 11.6308C14.6154 12.7385 13.6103 13.5589 12.3385 14.0923L17.6 23.2923H12.8615L7.23077 13.2308L9.93846 14.8308H4.18462V23.2923H0ZM4.18462 11.1385H8.58462C9.34356 11.1385 10 10.9949 10.5538 10.7077C11.1077 10.4 11.5385 9.97952 11.8462 9.44616C12.1538 8.91279 12.3077 8.29743 12.3077 7.6C12.3077 6.88205 12.1538 6.26666 11.8462 5.75385C11.5385 5.22051 11.1077 4.81026 10.5538 4.52308C10 4.21539 9.34356 4.06154 8.58462 4.06154H4.18462V11.1385ZM20.3426 23.2923V0.369232H24.5272V23.2923H20.3426ZM34.7825 23.2923V13.1385L27.0594 0.369232H31.8287L37.7363 10.3385H36.044L41.921 0.369232H46.6902L38.9979 13.1077V23.2923H34.7825ZM45.2085 23.2923L53.1161 0.369232H58.5315L66.4392 23.2923H61.8854L60.2546 18.3692H51.3931L49.7315 23.2923H45.2085ZM52.5931 14.6769H59.0546L55.2392 3.26154H56.4085L52.5931 14.6769ZM76.8745 23.6615C75.4181 23.6615 74.0642 23.3949 72.813 22.8615C71.5822 22.3282 70.5156 21.5897 69.613 20.6462C68.731 19.682 68.0848 18.5641 67.6745 17.2923L71.1514 15.7846C71.7053 17.0974 72.5053 18.1334 73.5514 18.8923C74.5976 19.6308 75.7771 20 77.0899 20C77.8284 20 78.4642 19.8872 78.9976 19.6615C79.5514 19.4154 79.9719 19.0872 80.2591 18.6769C80.5668 18.2666 80.7207 17.7743 80.7207 17.2C80.7207 16.5231 80.5156 15.9692 80.1053 15.5385C79.7156 15.0872 79.1207 14.7385 78.3207 14.4923L73.9207 13.0769C72.1361 12.5231 70.7925 11.6923 69.8899 10.5846C68.9873 9.47692 68.536 8.17436 68.536 6.67692C68.536 5.36411 68.854 4.20513 69.4899 3.2C70.1463 2.19488 71.0488 1.41539 72.1976 0.861539C73.3668 0.287184 74.7002 0 76.1976 0C77.5719 0 78.8335 0.246155 79.9822 0.738463C81.131 1.21026 82.1156 1.87692 82.9361 2.73846C83.7771 3.57949 84.4027 4.57436 84.813 5.72308L81.3668 7.26154C80.9156 6.11282 80.2386 5.23077 79.3361 4.61539C78.4335 3.97949 77.3873 3.66154 76.1976 3.66154C75.5002 3.66154 74.8848 3.78462 74.3514 4.03077C73.8181 4.25641 73.3976 4.58462 73.0899 5.01539C72.8027 5.42565 72.6591 5.91795 72.6591 6.49231C72.6591 7.1282 72.8642 7.69231 73.2745 8.18462C73.6848 8.65642 74.3104 9.02567 75.1514 9.29231L79.3668 10.6154C81.1925 11.2103 82.5565 12.0308 83.4591 13.0769C84.3822 14.1231 84.8437 15.4154 84.8437 16.9538C84.8437 18.2666 84.5053 19.4257 83.8284 20.4308C83.1514 21.4359 82.2181 22.2257 81.0284 22.8C79.8387 23.3743 78.454 23.6615 76.8745 23.6615ZM94.0806 23.2923V0.369232H98.2654V10.3692H108.019V0.369232H112.235V23.2923H108.019V14.0615H98.2654V23.2923H94.0806ZM114.77 23.2923L122.678 0.369232H128.093L136.001 23.2923H131.447L129.815 18.3692H120.955L119.293 23.2923H114.77ZM122.155 14.6769H128.616L124.801 3.26154H125.97L122.155 14.6769ZM138.552 23.2923V0.369232H142.737V12.3077L141.598 11.9077L151.352 0.369232H156.613L147.475 11.2L147.721 8.24615L156.89 23.2923H151.967L145.813 13.2L142.737 16.8615V23.2923H138.552ZM159.436 23.2923V0.369232H163.62V12.3077L162.482 11.9077L172.236 0.369232H177.497L168.359 11.2L168.605 8.24615L177.774 23.2923H172.851L166.697 13.2L163.62 16.8615V23.2923H159.436ZM180.318 23.2923V0.369232H184.503V23.2923H180.318ZM188.912 23.2923V0.369232H192.912L201.497 12.0308H199.589L207.989 0.369232H211.989V23.2923H207.774V5.13846L209.405 5.53846L200.697 17.1385H200.205L191.712 5.53846L193.097 5.13846V23.2923H188.912Z" fill="#96202A"/>
</svg>
