<svg width="213" height="25" viewBox="0 0 213 25" fill="none" xmlns="http://www.w3.org/2000/svg">
<path d="M0.293457 24.0384V1.11533H8.83659C10.3992 1.11533 11.7769 1.40251 12.9694 1.97686C14.1825 2.53071 15.1283 3.35122 15.8068 4.4384C16.4853 5.50507 16.8246 6.80763 16.8246 8.3461C16.8246 9.92561 16.4442 11.2692 15.6834 12.3769C14.9432 13.4846 13.9358 14.305 12.6609 14.8384L17.9349 24.0384H13.1853L7.54124 13.9769L10.2553 15.5769H4.48792V24.0384H0.293457ZM4.48792 11.8846H8.89827C9.659 11.8846 10.317 11.741 10.8721 11.4538C11.4273 11.1461 11.8591 10.7256 12.1675 10.1922C12.4759 9.65888 12.6301 9.04353 12.6301 8.3461C12.6301 7.62814 12.4759 7.01276 12.1675 6.49994C11.8591 5.9666 11.4273 5.55635 10.8721 5.26917C10.317 4.96148 9.659 4.80763 8.89827 4.80763H4.48792V11.8846ZM20.6839 24.0384V1.11533H24.8784V24.0384H20.6839ZM35.1578 24.0384V13.8846L27.4165 1.11533H32.197L38.1186 11.0846H36.4223L42.3131 1.11533H47.0935L39.3831 13.8538V24.0384H35.1578ZM45.6083 24.0384L53.5346 1.11533H58.9627L66.889 24.0384H62.3245L60.6898 19.1153H51.8075L50.142 24.0384H45.6083ZM53.0103 15.423H59.487L55.6627 4.00763H56.8346L53.0103 15.423ZM77.3489 24.4076C75.889 24.4076 74.532 24.141 73.2778 23.6076C72.0441 23.0743 70.9749 22.3358 70.0702 21.3922C69.1861 20.4281 68.5385 19.3102 68.1272 18.0384L71.6123 16.5307C72.1675 17.8435 72.9693 18.8795 74.018 19.6384C75.0666 20.3769 76.2489 20.7461 77.5647 20.7461C78.3049 20.7461 78.9423 20.6333 79.4769 20.4076C80.0321 20.1615 80.4535 19.8333 80.7414 19.423C81.0498 19.0127 81.2041 18.5204 81.2041 17.9461C81.2041 17.2692 80.9985 16.7153 80.5872 16.2846C80.1966 15.8333 79.6003 15.4846 78.7984 15.2384L74.3881 13.823C72.5992 13.2692 71.2525 12.4384 70.3478 11.3307C69.4431 10.223 68.9908 8.92045 68.9908 7.42302C68.9908 6.1102 69.3095 4.95122 69.9469 3.94609C70.6048 2.94097 71.5095 2.16148 72.6609 1.60763C73.8329 1.03328 75.1694 0.746094 76.6703 0.746094C78.0479 0.746094 79.3124 0.992249 80.4639 1.48456C81.6153 1.95635 82.6022 2.62302 83.4247 3.48456C84.2677 4.32559 84.8947 5.32045 85.306 6.46917L81.8517 8.00763C81.3994 6.85891 80.7209 5.97686 79.8162 5.36148C78.9115 4.72559 77.8628 4.40763 76.6703 4.40763C75.9713 4.40763 75.3545 4.53071 74.8198 4.77686C74.2852 5.00251 73.8637 5.33071 73.5553 5.76148C73.2674 6.17174 73.1235 6.66405 73.1235 7.2384C73.1235 7.8743 73.3291 8.4384 73.7404 8.93071C74.1516 9.40251 74.7787 9.77177 75.6217 10.0384L79.847 11.3615C81.677 11.9564 83.0442 12.7769 83.949 13.823C84.8742 14.8692 85.3368 16.1615 85.3368 17.6999C85.3368 19.0127 84.9976 20.1718 84.3191 21.1769C83.6405 22.182 82.705 22.9718 81.5125 23.5461C80.32 24.1204 78.9321 24.4076 77.3489 24.4076ZM94.5954 24.0384V1.11533H98.79V11.1153H108.567V1.11533H112.792V24.0384H108.567V14.8076H98.79V24.0384H94.5954ZM115.334 24.0384L123.26 1.11533H128.688L136.614 24.0384H132.05L130.414 19.1153H121.533L119.867 24.0384H115.334ZM122.736 15.423H129.212L125.388 4.00763H126.56L122.736 15.423ZM139.171 24.0384V1.11533H143.366V13.0538L142.225 12.6538L152.001 1.11533H157.275L148.115 11.9461L148.362 8.99225L157.553 24.0384H152.618L146.45 13.9461L143.366 17.6076V24.0384H139.171ZM160.104 24.0384V1.11533H164.299V13.0538L163.157 12.6538L172.934 1.11533H178.208L169.048 11.9461L169.295 8.99225L178.486 24.0384H173.551L167.383 13.9461L164.299 17.6076V24.0384H160.104ZM181.036 24.0384V1.11533H185.23V24.0384H181.036ZM189.65 24.0384V1.11533H193.66L202.265 12.7769H200.352L208.772 1.11533H212.782V24.0384H208.556V5.88456L210.191 6.28456L201.463 17.8846H200.969L192.457 6.28456L193.845 5.88456V24.0384H189.65Z" fill="#C8952E"/>
</svg>
