<svg width="50" height="50" viewBox="0 0 50 50" fill="none" xmlns="http://www.w3.org/2000/svg">
<circle cx="25" cy="25" r="24.5" stroke="#9E9E9E"/>
<path d="M35 19.3522C35 18.3374 34.1743 17.5117 33.1595 17.5117H16.8405C15.8259 17.5118 15.0004 18.337 15 19.3525V19.3529V30.6497C15 31.6773 15.8341 32.4909 16.8411 32.4909H33.1588C34.1863 32.4909 35 31.6569 35 30.6497V19.3529C35 19.3528 35 19.3527 35 19.3526C35 19.3525 35 19.3524 35 19.3522ZM16.8405 18.6836H33.1595C33.5282 18.6836 33.8281 18.9836 33.8281 19.3532C33.8281 19.5496 33.7305 19.7319 33.5668 19.841L25.3713 25.3049C25.1458 25.4553 24.8543 25.4553 24.6287 25.3049C24.6287 25.3049 16.433 19.8409 16.4332 19.841C16.4332 19.841 16.4331 19.8409 16.433 19.8409C16.2695 19.7319 16.1719 19.5496 16.1719 19.3522C16.1719 18.9836 16.4718 18.6836 16.8405 18.6836ZM33.1589 31.319H16.8411C16.4763 31.319 16.1719 31.024 16.1719 30.6497V21.0752L23.9787 26.2799C24.2889 26.4868 24.6445 26.5902 25 26.5902C25.3556 26.5902 25.7112 26.4868 26.0214 26.2799L33.8281 21.0752V30.6498C33.8281 31.0145 33.5332 31.319 33.1589 31.319Z" fill="white"/>
</svg>
