<svg width="70" height="70" viewBox="0 0 70 70" fill="none" xmlns="http://www.w3.org/2000/svg">
<circle cx="35" cy="35" r="35" fill="#C8952E"/>
<path d="M48.3438 18.3609C48.1359 18.1313 47.8428 18 47.5322 18H23.4697C23.1613 18 22.8659 18.1313 22.6581 18.3609C22.4525 18.5884 22.3497 18.8947 22.3803 19.2031L25.6616 52.0156C25.7184 52.5756 26.1888 53 26.7509 53H44.2509C44.8131 53 45.2834 52.5756 45.3381 52.0156L48.6194 19.2031C48.6522 18.8947 48.5516 18.5884 48.3438 18.3609ZM45.4322 29.1081C42.6519 30.0072 39.0338 30.4228 36.1944 28.0931C32.6353 25.1728 28.2734 25.6759 25.3159 26.5553L24.6794 20.1875H46.3225L45.4322 29.1081Z" fill="white"/>
</svg>
