<svg width="70" height="70" viewBox="0 0 70 70" fill="none" xmlns="http://www.w3.org/2000/svg">
<circle cx="35" cy="35" r="35" fill="#C8952E"/>
<path d="M18 37.5781V39.6289H20.5106L22.5614 43.7305H32.0268L30.6596 47.832H28.3223V49.8828H42.6777V47.832H40.3404L38.9732 43.7305H48.4386L50.4894 39.6289H53V37.5781H18Z" fill="white"/>
<path d="M38.2883 23.4748C38.4688 23.0834 38.5767 22.6521 38.5767 22.1934C38.5767 20.4972 37.1967 19.1172 35.5005 19.1172C33.8044 19.1172 32.4244 20.4972 32.4244 22.1934C32.4244 22.6521 32.5322 23.0834 32.7127 23.4748C26.5591 24.6062 21.6756 29.4098 20.4297 35.5234H50.5714C49.3254 29.4098 44.442 24.6062 38.2883 23.4748ZM34.4751 22.1934C34.4751 21.6275 34.9347 21.168 35.5005 21.168C36.0664 21.168 36.5259 21.6275 36.5259 22.1934C36.5259 22.7592 36.0664 23.2188 35.5005 23.2188C34.9347 23.2188 34.4751 22.7592 34.4751 22.1934Z" fill="white"/>
</svg>
