<svg width="70" height="70" viewBox="0 0 70 70" fill="none" xmlns="http://www.w3.org/2000/svg">
<circle cx="35" cy="35" r="35" fill="#C8952E"/>
<g clip-path="url(#clip0_992_1455)">
<path d="M26.9967 21.402C26.2657 20.671 26.2657 19.4813 26.9967 18.7504C27.3972 18.3498 27.3972 17.7009 26.9967 17.3004C26.5962 16.8999 25.9472 16.8999 25.5467 17.3004C24.0157 18.8305 24.0157 21.3218 25.5467 22.8519C26.2777 23.5829 26.2777 24.7725 25.5467 25.5035C25.1462 25.904 25.1462 26.553 25.5467 26.9535C25.9473 27.3541 26.5961 27.3541 26.9967 26.9535C28.5277 25.4234 28.5277 22.932 26.9967 21.402Z" fill="white"/>
<path d="M33.149 21.402C32.4181 20.671 32.4181 19.4813 33.149 18.7504C33.5496 18.3498 33.5496 17.7009 33.149 17.3004C32.7485 16.8999 32.0996 16.8999 31.6991 17.3004C30.168 18.8305 30.168 21.3218 31.6991 22.8519C32.4301 23.5829 32.4301 24.7725 31.6991 25.5035C31.2986 25.904 31.2986 26.553 31.6991 26.9535C31.8994 27.1538 32.1618 27.2539 32.4241 27.2539C32.6864 27.2539 32.9488 27.1538 33.149 26.9535C34.6801 25.4234 34.6801 22.932 33.149 21.402Z" fill="white"/>
<path d="M39.3014 21.402C38.5704 20.671 38.5704 19.4813 39.3014 18.7504C39.7019 18.3498 39.7019 17.7009 39.3014 17.3004C38.9009 16.8999 38.2519 16.8999 37.8514 17.3004C36.3204 18.8305 36.3204 21.3218 37.8514 22.8519C38.5824 23.5829 38.5824 24.7725 37.8514 25.5035C37.4509 25.904 37.4509 26.553 37.8514 26.9535C38.252 27.3541 38.9008 27.3541 39.3014 26.9535C40.8324 25.4234 40.8324 22.932 39.3014 21.402Z" fill="white"/>
<path d="M49.9238 31.4258H46.8037C46.817 31.0834 46.8477 30.7461 46.8477 30.4004C46.8477 29.8336 46.389 29.375 45.8223 29.375H19.0254C18.4586 29.375 18 29.8336 18 30.4004C18 36.5119 20.1012 42.2024 23.5827 45.8496H41.265C41.859 45.2273 42.3965 44.4605 42.9067 43.7305H43.7715C48.8604 43.7305 53 39.5908 53 34.502C53 32.8057 51.6201 31.4258 49.9238 31.4258ZM44.1764 41.6387C45.4421 39.2313 46.2937 36.4529 46.6454 33.4766H49.9238C50.4896 33.4766 50.9492 33.9362 50.9492 34.502C50.9492 38.3206 47.9424 41.424 44.1764 41.6387Z" fill="white"/>
<path d="M44.2748 47.8984H20.5759C19.6431 47.8984 19.1967 49.042 19.8714 49.6861C21.405 51.15 23.4529 52 25.6629 52H39.1878C41.3978 52 43.4457 51.15 44.9793 49.6861C45.6541 49.042 45.2076 47.8984 44.2748 47.8984Z" fill="white"/>
</g>
<defs>
<clipPath id="clip0_992_1455">
<rect width="35" height="35" fill="white" transform="translate(18 17)"/>
</clipPath>
</defs>
</svg>
