<svg width="70" height="70" viewBox="0 0 70 70" fill="none" xmlns="http://www.w3.org/2000/svg">
<circle cx="35" cy="35" r="35" fill="#C8952E"/>
<g clip-path="url(#clip0_992_1475)">
<path d="M45.3478 45.6316L37.1627 40.4921L43.2048 36.4579C43.4001 36.3283 43.5387 36.1292 43.5923 35.901C43.646 35.6728 43.6106 35.4328 43.4934 35.2298L43.4197 35.1009L44.918 34.2719C45.1865 34.1233 45.4043 33.8976 45.5434 33.624C45.6824 33.3504 45.7362 33.0414 45.6978 32.7368L45.5381 31.5088C45.5131 31.3072 45.4487 31.1125 45.3484 30.9358C45.2482 30.7591 45.1141 30.6039 44.9539 30.4791C44.7937 30.3542 44.6104 30.2621 44.4146 30.208C44.2188 30.154 44.0143 30.139 43.8127 30.164C43.6111 30.189 43.4164 30.2535 43.2397 30.3537C43.0631 30.454 42.9078 30.588 42.783 30.7483C42.6581 30.9085 42.566 31.0917 42.512 31.2875C42.4579 31.4833 42.443 31.6879 42.468 31.8895L42.4987 32.1167L41.8846 32.4667L41.4855 31.7789C41.3667 31.5721 41.1724 31.4195 40.9433 31.3531C40.7143 31.2866 40.4684 31.3116 40.2574 31.4228L35.7013 33.7868L35.4802 33.2465C34.9157 31.8058 33.9868 30.5364 32.7846 29.5623V27.7202H33.239C33.5539 27.7226 33.8661 27.6623 34.1574 27.5428C34.4487 27.4232 34.7133 27.2468 34.9357 27.0239C35.158 26.8009 35.3338 26.5359 35.4526 26.2443C35.5714 25.9527 35.6309 25.6403 35.6276 25.3254V22.2982C35.6276 21.1583 35.1748 20.065 34.3687 19.2589C33.5626 18.4528 32.4693 18 31.3294 18C30.1894 18 29.0961 18.4528 28.29 19.2589C27.484 20.065 27.0311 21.1583 27.0311 22.2982V23.1456C27.0326 23.7183 27.1486 24.2849 27.3721 24.8121C27.5957 25.3393 27.9223 25.8166 28.3329 26.2158L29.1925 27.057C29.0184 26.9884 28.8268 26.9776 28.646 27.0263C28.5148 27.0583 28.3921 27.1182 28.2861 27.2019C28.1801 27.2856 28.0935 27.3912 28.032 27.5114L26.2451 31.1956C25.7094 32.2978 25.4302 33.507 25.4285 34.7325V44.1886C25.4277 44.7825 25.5443 45.3708 25.7715 45.9195C25.9988 46.4682 26.3323 46.9666 26.7529 47.386C27.1734 47.8055 27.6727 48.1376 28.2221 48.3634C28.7714 48.5892 29.36 48.7042 29.9539 48.7018H30.2118L27.6451 51.1579H24.882C24.6377 51.1579 24.4034 51.2549 24.2307 51.4277C24.058 51.6004 23.9609 51.8347 23.9609 52.0789C23.9609 52.3232 24.058 52.5575 24.2307 52.7302C24.4034 52.903 24.6377 53 24.882 53H42.689C43.1624 53.0009 43.6314 52.908 44.0687 52.7268C44.5061 52.5455 44.9033 52.2794 45.2373 51.9439L45.9557 51.2254C46.3393 50.8431 46.6321 50.3794 46.8122 49.8687C46.9923 49.3579 47.0552 48.8132 46.9963 48.2748C46.9373 47.7364 46.758 47.2182 46.4715 46.7585C46.1851 46.2988 45.7989 45.9095 45.3416 45.6193L45.3478 45.6316Z" fill="white"/>
</g>
<defs>
<clipPath id="clip0_992_1475">
<rect width="35" height="35" fill="white" transform="translate(18 18)"/>
</clipPath>
</defs>
</svg>
