<svg width="70" height="70" viewBox="0 0 70 70" fill="none" xmlns="http://www.w3.org/2000/svg">
<circle cx="35" cy="35" r="35" fill="#C8952E"/>
<g clip-path="url(#clip0_992_1433)">
<path d="M35.5044 18H35.4956C25.8466 18 18 25.8487 18 35.5C18 39.3281 19.2338 42.8763 21.3316 45.7572L19.1506 52.2584L25.8772 50.1081C28.6444 51.9413 31.9453 53 35.5044 53C45.1534 53 53 45.1491 53 35.5C53 25.8509 45.1534 18 35.5044 18ZM45.6872 42.7122C45.265 43.9044 43.5894 44.8931 42.2528 45.1819C41.3384 45.3766 40.1441 45.5319 36.1234 43.865C30.9806 41.7344 27.6688 36.5084 27.4106 36.1694C27.1634 35.8303 25.3325 33.4022 25.3325 30.8909C25.3325 28.3797 26.6078 27.1569 27.1219 26.6319C27.5441 26.2009 28.2419 26.0041 28.9112 26.0041C29.1278 26.0041 29.3225 26.015 29.4975 26.0237C30.0116 26.0456 30.2697 26.0763 30.6087 26.8878C31.0309 27.905 32.0591 30.4163 32.1816 30.6744C32.3062 30.9325 32.4309 31.2825 32.2559 31.6216C32.0919 31.9716 31.9475 32.1269 31.6894 32.4244C31.4312 32.7219 31.1862 32.9494 30.9281 33.2688C30.6919 33.5466 30.425 33.8441 30.7225 34.3581C31.02 34.8613 32.0481 36.5391 33.5619 37.8866C35.5153 39.6256 37.0991 40.1813 37.6656 40.4175C38.0878 40.5925 38.5909 40.5509 38.8994 40.2228C39.2909 39.8006 39.7744 39.1006 40.2666 38.4116C40.6166 37.9172 41.0584 37.8559 41.5222 38.0309C41.9947 38.195 44.495 39.4309 45.0091 39.6869C45.5231 39.945 45.8622 40.0675 45.9869 40.2841C46.1094 40.5006 46.1094 41.5178 45.6872 42.7122Z" fill="white"/>
</g>
<defs>
<clipPath id="clip0_992_1433">
<rect width="35" height="35" fill="white" transform="translate(18 18)"/>
</clipPath>
</defs>
</svg>
