<svg width="50" height="50" viewBox="0 0 50 50" fill="none" xmlns="http://www.w3.org/2000/svg">
<circle cx="25" cy="25" r="24.5" stroke="#9E9E9E"/>
<g clip-path="url(#clip0_992_1201)">
<path d="M32.8079 16.1758H31.0432V17.9405C31.0432 18.2934 30.7491 18.5287 30.455 18.5287C30.1608 18.5287 29.8667 18.2934 29.8667 17.9405V16.1758H20.455V17.9405C20.455 18.2934 20.1608 18.5287 19.8667 18.5287C19.5726 18.5287 19.2785 18.2934 19.2785 17.9405V16.1758H17.5138C16.6314 16.1758 15.9844 16.9405 15.9844 17.9405V20.0581H34.8079V17.9405C34.8079 16.9405 33.7491 16.1758 32.8079 16.1758ZM15.9844 21.2934V32.0581C15.9844 33.117 16.6314 33.8228 17.5726 33.8228H32.8667C33.8079 33.8228 34.8667 33.0581 34.8667 32.0581V21.2934H15.9844ZM21.2197 31.1758H19.8079C19.5726 31.1758 19.3373 30.9993 19.3373 30.7052V29.2346C19.3373 28.9993 19.5138 28.764 19.8079 28.764H21.2785C21.5138 28.764 21.7491 28.9405 21.7491 29.2346V30.7052C21.6903 30.9993 21.5138 31.1758 21.2197 31.1758ZM21.2197 25.8817H19.8079C19.5726 25.8817 19.3373 25.7052 19.3373 25.4111V23.9405C19.3373 23.7052 19.5138 23.4699 19.8079 23.4699H21.2785C21.5138 23.4699 21.7491 23.6464 21.7491 23.9405V25.4111C21.6903 25.7052 21.5138 25.8817 21.2197 25.8817ZM25.9256 31.1758H24.455C24.2197 31.1758 23.9844 30.9993 23.9844 30.7052V29.2346C23.9844 28.9993 24.1608 28.764 24.455 28.764H25.9256C26.1608 28.764 26.3961 28.9405 26.3961 29.2346V30.7052C26.3961 30.9993 26.2197 31.1758 25.9256 31.1758ZM25.9256 25.8817H24.455C24.2197 25.8817 23.9844 25.7052 23.9844 25.4111V23.9405C23.9844 23.7052 24.1608 23.4699 24.455 23.4699H25.9256C26.1608 23.4699 26.3961 23.6464 26.3961 23.9405V25.4111C26.3961 25.7052 26.2197 25.8817 25.9256 25.8817ZM30.6314 31.1758H29.1608C28.9256 31.1758 28.6903 30.9993 28.6903 30.7052V29.2346C28.6903 28.9993 28.8667 28.764 29.1608 28.764H30.6314C30.8667 28.764 31.102 28.9405 31.102 29.2346V30.7052C31.102 30.9993 30.9256 31.1758 30.6314 31.1758ZM30.6314 25.8817H29.1608C28.9256 25.8817 28.6903 25.7052 28.6903 25.4111V23.9405C28.6903 23.7052 28.8667 23.4699 29.1608 23.4699H30.6314C30.8667 23.4699 31.102 23.6464 31.102 23.9405V25.4111C31.102 25.7052 30.9256 25.8817 30.6314 25.8817Z" fill="white"/>
</g>
<defs>
<clipPath id="clip0_992_1201">
<rect width="20" height="20" fill="white" transform="translate(15.3945 15)"/>
</clipPath>
</defs>
</svg>
