<svg width="50" height="50" viewBox="0 0 50 50" fill="none" xmlns="http://www.w3.org/2000/svg">
<circle cx="25" cy="25" r="24.5" stroke="#9E9E9E"/>
<g clip-path="url(#clip0_992_1206)">
<path d="M25 15C21.4857 15 18.5547 17.8309 18.5547 21.4453C18.5547 22.8204 18.9679 24.0466 19.7609 25.1955L24.5068 32.601C24.737 32.961 25.2635 32.9603 25.4932 32.601L30.2597 25.1704C31.0356 24.0734 31.4453 22.7854 31.4453 21.4453C31.4453 17.8914 28.5539 15 25 15ZM25 24.375C23.3846 24.375 22.0703 23.0607 22.0703 21.4453C22.0703 19.83 23.3846 18.5156 25 18.5156C26.6154 18.5156 27.9297 19.83 27.9297 21.4453C27.9297 23.0607 26.6154 24.375 25 24.375Z" fill="white"/>
<path d="M29.5806 28.4648L26.6302 33.0776C25.8665 34.2683 24.1293 34.2644 23.3692 33.0787L20.414 28.4661C17.8138 29.0672 16.2109 30.1685 16.2109 31.4846C16.2109 33.7682 20.7394 35.0002 25 35.0002C29.2606 35.0002 33.7891 33.7682 33.7891 31.4846C33.7891 30.1676 32.1839 29.0657 29.5806 28.4648Z" fill="white"/>
</g>
<defs>
<clipPath id="clip0_992_1206">
<rect width="20" height="20" fill="white" transform="translate(15 15)"/>
</clipPath>
</defs>
</svg>
