<svg width="50" height="50" viewBox="0 0 50 50" fill="none" xmlns="http://www.w3.org/2000/svg">
<circle cx="25" cy="25" r="24.5" stroke="#9E9E9E"/>
<g clip-path="url(#clip0_992_1215)">
<path d="M34.4542 29.678L31.6631 26.8869C30.6663 25.8901 28.9717 26.2889 28.573 27.5847C28.274 28.4819 27.2772 28.9803 26.38 28.7809C24.3864 28.2825 21.6951 25.6908 21.1967 23.5975C20.8976 22.7003 21.4957 21.7035 22.3928 21.4045C23.6887 21.0058 24.0874 19.3112 23.0906 18.3144L20.2995 15.5233C19.5021 14.8256 18.3059 14.8256 17.6081 15.5233L15.7142 17.4173C13.8203 19.4109 15.9136 24.6939 20.5986 29.3789C25.2836 34.0639 30.5666 36.2569 32.5603 34.2633L34.4542 32.3694C35.152 31.5719 35.152 30.3757 34.4542 29.678Z" fill="white"/>
</g>
<defs>
<clipPath id="clip0_992_1215">
<rect width="20" height="20" fill="white" transform="translate(15 15)"/>
</clipPath>
</defs>
</svg>
