<svg width="100" height="100" viewBox="0 0 100 100" fill="none" xmlns="http://www.w3.org/2000/svg">
<circle cx="50" cy="50" r="49" stroke="#9E9E9E" stroke-width="2"/>
<g clip-path="url(#clip0_819_319)">
<path d="M52.6563 69.9219H46.2506C45.1807 69.9219 44.3103 69.0515 44.3103 67.9816V53.5333H40.5731C39.5032 53.5333 38.6328 52.6627 38.6328 51.593V45.4019C38.6328 44.332 39.5032 43.4616 40.5731 43.4616H44.3103V40.3613C44.3103 37.2873 45.2756 34.6719 47.1014 32.7985C48.9355 30.9164 51.4987 29.9219 54.5139 29.9219L59.3991 29.9298C60.4672 29.9316 61.3361 30.802 61.3361 31.8701V37.6184C61.3361 38.6884 60.466 39.5587 59.3964 39.5587L56.1072 39.5599C55.1041 39.5599 54.8486 39.761 54.794 39.8227C54.704 39.9249 54.5969 40.2139 54.5969 41.012V43.4613H59.1492C59.4919 43.4613 59.8239 43.5458 60.1093 43.7051C60.7248 44.0491 61.1075 44.6994 61.1075 45.4022L61.105 51.5933C61.105 52.6627 60.2347 53.533 59.1647 53.533H54.5969V67.9816C54.5969 69.0515 53.7262 69.9219 52.6563 69.9219ZM46.6553 67.5769H52.2516V52.4835C52.2516 51.7691 52.8329 51.1881 53.5471 51.1881H58.7601L58.7622 45.8066H53.5468C52.8326 45.8066 52.2516 45.2255 52.2516 44.5111V41.012C52.2516 40.0958 52.3447 39.054 53.0362 38.2709C53.8718 37.3242 55.1886 37.215 56.1066 37.215L58.9911 37.2137V32.2742L54.512 32.2668C49.6664 32.2668 46.6553 35.3687 46.6553 40.3613V44.5111C46.6553 45.2252 46.0742 45.8066 45.3601 45.8066H40.9778V51.1881H45.3601C46.0742 51.1881 46.6553 51.7691 46.6553 52.4835V67.5769Z" fill="white"/>
</g>
<defs>
<clipPath id="clip0_819_319">
<rect width="39.9219" height="40" fill="white" transform="translate(30 30)"/>
</clipPath>
</defs>
</svg>
