<svg width="100" height="100" viewBox="0 0 100 100" fill="none" xmlns="http://www.w3.org/2000/svg">
<circle cx="50" cy="50" r="49" stroke="#9E9E9E" stroke-width="2"/>
<g clip-path="url(#clip0_819_300)">
<path d="M60.625 70H39.375C34.2056 70 30 65.7944 30 60.625V39.375C30 34.2056 34.2056 30 39.375 30H60.625C65.7944 30 70 34.2056 70 39.375V60.625C70 65.7944 65.7944 70 60.625 70ZM39.375 33.125C35.9288 33.125 33.125 35.9288 33.125 39.375V60.625C33.125 64.0712 35.9288 66.875 39.375 66.875H60.625C64.0712 66.875 66.875 64.0712 66.875 60.625V39.375C66.875 35.9288 64.0712 33.125 60.625 33.125H39.375ZM61.0156 37.0312C59.937 37.0312 59.0625 37.9057 59.0625 38.9844C59.0625 40.063 59.937 40.9375 61.0156 40.9375C62.0943 40.9375 62.9688 40.063 62.9688 38.9844C62.9688 37.9057 62.0943 37.0312 61.0156 37.0312ZM50 60.1562C44.3998 60.1562 39.8438 55.6002 39.8438 50C40.4016 36.5263 59.6005 36.5302 60.1562 50.0001C60.1562 55.6002 55.6002 60.1562 50 60.1562ZM50 42.9688C46.123 42.9688 42.9688 46.123 42.9688 50C43.355 59.3279 56.6464 59.3252 57.0312 49.9999C57.0312 46.123 53.877 42.9688 50 42.9688Z" fill="white"/>
</g>
<defs>
<clipPath id="clip0_819_300">
<rect width="40" height="40" fill="white" transform="translate(30 30)"/>
</clipPath>
</defs>
</svg>
