<svg width="100" height="100" viewBox="0 0 100 100" fill="none" xmlns="http://www.w3.org/2000/svg">
<circle cx="50" cy="50" r="49" stroke="#9E9E9E" stroke-width="2"/>
<g clip-path="url(#clip0_819_308)">
<path d="M30.6055 69.8448H40.9626V42.6094H30.6055V69.8448ZM32.9492 44.9531H38.6188V67.5009H32.9492V44.9531Z" fill="white"/>
<path d="M35.7851 30.1641C32.593 30.1641 29.9961 32.761 29.9961 35.953C29.9961 39.1451 32.593 41.7421 35.7851 41.7421C38.9772 41.7421 41.5741 39.1452 41.5741 35.953C41.5741 32.7609 38.9771 30.1641 35.7851 30.1641ZM32.3398 35.953C32.3398 34.0534 33.8853 32.5078 35.7851 32.5078C37.6848 32.5078 39.2304 34.0533 39.2304 35.953C39.2304 37.8528 37.6848 39.3984 35.7851 39.3984C33.8853 39.3984 32.3398 37.8527 32.3398 35.953Z" fill="white"/>
<path d="M69.9691 51.1597C69.6005 45.8585 65.1787 41.7734 59.6966 41.7734C57.2445 41.7734 54.9297 42.6259 53.1059 44.1386V42.6073H43.1816V69.8427H53.5388V54.9471C53.5388 53.2684 54.9045 51.9026 56.5834 51.9026C58.262 51.9026 59.6278 53.2684 59.6278 54.9478L59.6378 69.8428H69.9942V51.1848L69.9691 51.1597ZM51.1951 67.4991H45.5254V44.9512H50.762V48.2986L52.6374 48.3094L52.9859 47.7684C54.4585 45.4821 56.9672 44.1173 59.6966 44.1173C64.0588 44.1173 67.5515 47.4455 67.6481 51.6942L67.6505 67.4991H61.98L61.9716 54.9471C61.9716 51.976 59.5544 49.5588 56.5834 49.5588C53.6123 49.5588 51.1951 51.976 51.1951 54.9471V67.4991Z" fill="white"/>
</g>
<defs>
<clipPath id="clip0_819_308">
<rect width="40" height="40" fill="white" transform="translate(30 30)"/>
</clipPath>
</defs>
</svg>
