<svg width="100" height="100" viewBox="0 0 100 100" fill="none" xmlns="http://www.w3.org/2000/svg">
<circle cx="50" cy="50" r="49" stroke="#9E9E9E" stroke-width="2"/>
<g clip-path="url(#clip0_819_315)">
<path d="M58.7785 48.5392C58.6053 48.4562 58.4304 48.3767 58.2539 48.301C57.9452 42.6121 54.8366 39.3552 49.6171 39.3219C46.6055 39.3019 43.9098 40.5299 42.2296 43.0793L45.1002 45.0485C46.2941 43.2372 48.1677 42.851 49.5476 42.851C49.5635 42.851 49.5795 42.851 49.5953 42.8512C51.3139 42.8621 52.6108 43.3618 53.4502 44.3362C54.061 45.0457 54.4696 46.0261 54.6718 47.2633C53.1481 47.0043 51.5002 46.9247 49.7385 47.0256C44.776 47.3116 41.5856 50.2058 41.7999 54.2275C41.9086 56.2675 42.9249 58.0225 44.6614 59.1689C46.1297 60.1381 48.0206 60.612 49.9859 60.5048C52.5812 60.3625 54.6172 59.3723 56.0377 57.5616C57.1164 56.1867 57.7987 54.4048 58.1 52.1596C59.3368 52.906 60.2535 53.8884 60.7597 55.0691C61.6206 57.0764 61.6707 60.375 58.9793 63.0641C56.6212 65.42 53.7866 66.4391 49.5028 66.4706C44.7509 66.4354 41.157 64.9115 38.8204 61.941C36.6324 59.1596 35.5016 55.142 35.4594 50C35.5016 44.8579 36.6324 40.8403 38.8204 38.0589C41.157 35.0885 44.7508 33.5645 49.5027 33.5293C54.2891 33.5649 57.9456 35.0962 60.3716 38.0809C61.5612 39.5445 62.4581 41.3852 63.0493 43.5313L66.4133 42.6338C65.6966 39.9922 64.569 37.7157 63.0343 35.828C59.9242 32.0015 55.3754 30.0406 49.5145 30H49.491C43.642 30.0405 39.1441 32.0087 36.1225 35.8498C33.4337 39.268 32.0468 44.0241 32.0002 49.9859L32 50L32.0002 50.014C32.0468 55.9758 33.4337 60.732 36.1225 64.1502C39.1441 67.9912 43.642 69.9596 49.491 70H49.5145C54.7146 69.9639 58.38 68.6025 61.3996 65.5855C65.3502 61.6387 65.2313 56.6915 63.9291 53.6544C62.995 51.4765 61.2139 49.7075 58.7785 48.5392ZM49.8001 56.9806C47.6251 57.1031 45.3655 56.1268 45.2541 54.0358C45.1715 52.4854 46.3575 50.7554 49.9335 50.5493C50.3431 50.5257 50.745 50.5141 51.1397 50.5141C52.4387 50.5141 53.6539 50.6403 54.7587 50.8819C54.3467 56.0281 51.9296 56.8638 49.8001 56.9806Z" fill="white"/>
</g>
<defs>
<clipPath id="clip0_819_315">
<rect width="34.4133" height="40" fill="white" transform="translate(32 30)"/>
</clipPath>
</defs>
</svg>
