<svg width="100" height="100" viewBox="0 0 100 100" fill="none" xmlns="http://www.w3.org/2000/svg">
<circle cx="50" cy="50" r="49" stroke="#9E9E9E" stroke-width="2"/>
<path d="M66.3074 38.7863C62.1088 38.7863 58.6929 35.3705 58.6929 31.1719C58.6929 30.5246 58.168 30 57.5211 30H51.2448C50.5975 30 50.0729 30.5246 50.0729 31.1719V56.9037C50.0729 59.3719 48.0649 61.38 45.5963 61.38C43.1281 61.38 41.12 59.3719 41.12 56.9037C41.12 54.4351 43.1281 52.4271 45.5963 52.4271C46.2436 52.4271 46.7682 51.9025 46.7682 51.2552V44.9789C46.7682 44.332 46.2436 43.8071 45.5963 43.8071C38.3749 43.8071 32.5 49.6823 32.5 56.9037C32.5 64.1251 38.3749 70 45.5963 70C52.8177 70 58.6929 64.1251 58.6929 56.9037V45.5136C61.0254 46.7572 63.6206 47.4063 66.3074 47.4063C66.9547 47.4063 67.4792 46.8817 67.4792 46.2344V39.9582C67.4792 39.3112 66.9547 38.7863 66.3074 38.7863ZM65.1355 45.014C62.6337 44.8059 60.2579 43.9319 58.2053 42.4554C57.8485 42.1985 57.3779 42.1631 56.9864 42.3639C56.5952 42.5641 56.3492 42.9669 56.3492 43.4067V56.9037C56.3492 62.8326 51.5253 67.6562 45.5963 67.6562C39.6674 67.6562 34.8438 62.8326 34.8438 56.9037C34.8438 51.3705 39.0448 46.7999 44.4244 46.2143V50.184C41.2201 50.7413 38.7762 53.5422 38.7762 56.9037C38.7762 60.6644 41.8356 63.7241 45.5963 63.7241C49.3573 63.7241 52.4167 60.6644 52.4167 56.9037V32.3438H56.4175C56.9543 36.9 60.5792 40.5249 65.1355 41.0617V45.014Z" fill="white"/>
</svg>
