<svg width="100" height="100" viewBox="0 0 100 100" fill="none" xmlns="http://www.w3.org/2000/svg">
<circle cx="50" cy="50" r="49" stroke="#9E9E9E" stroke-width="2"/>
<g clip-path="url(#clip0_819_295)">
<path d="M56.1573 48.2007L47.3203 43.3655C46.8122 43.0875 46.2116 43.0978 45.7136 43.3929C45.2152 43.6884 44.918 44.2102 44.918 44.7894V54.3768C44.918 54.9533 45.2134 55.4742 45.7084 55.77C45.9669 55.9244 46.2534 56.0019 46.5406 56.0019C46.8037 56.0019 47.0673 55.9369 47.3099 55.8063L56.1472 51.0544C56.6718 50.7721 56.9993 50.2268 57.0017 49.6307C57.0038 49.0347 56.6804 48.4869 56.1573 48.2007ZM47.262 53.1708V46.0053L53.8666 49.6191L47.262 53.1708Z" fill="white"/>
<path d="M69.7058 41.9943L69.704 41.976C69.6701 41.6541 69.3329 38.7903 67.9407 37.3337C66.3315 35.6204 64.5071 35.4123 63.6298 35.3125C63.5571 35.3043 63.4906 35.2966 63.4311 35.2887L63.3612 35.2814C58.0731 34.8969 50.087 34.8444 50.007 34.8441L50 34.8438L49.993 34.8441C49.913 34.8444 41.9269 34.8969 36.5912 35.2814L36.5207 35.2887C36.4639 35.2963 36.4014 35.3033 36.3333 35.3113C35.466 35.4114 33.6612 35.6198 32.0474 37.395C30.7214 38.8361 30.3381 41.6385 30.2988 41.9534L30.2942 41.9943C30.2823 42.1283 30 45.3177 30 48.5196V51.5128C30 54.7147 30.2823 57.9041 30.2942 58.0383L30.2963 58.0585C30.3302 58.3752 30.6671 61.1865 32.0529 62.6437C33.566 64.2996 35.4791 64.5187 36.5082 64.6365C36.6708 64.6552 36.8109 64.671 36.9064 64.6878L36.9989 64.7006C40.0522 64.9912 49.6252 65.1343 50.0311 65.1401L50.0433 65.1404L50.0555 65.1401C50.1355 65.1398 58.1213 65.0873 63.4094 64.7028L63.4793 64.6954C63.5461 64.6866 63.6212 64.6787 63.7036 64.6701C64.566 64.5786 66.3611 64.3884 67.9526 62.6373C69.2786 61.196 69.6622 58.3936 69.7012 58.0789L69.7058 58.038C69.7177 57.9037 70.0003 54.7147 70.0003 51.5128V48.5196C70 45.3177 69.7177 42.1286 69.7058 41.9943ZM67.6559 51.5128C67.6559 54.4763 67.3972 57.5284 67.3727 57.8085C67.2733 58.5803 66.8689 60.3534 66.2228 61.0556C65.2267 62.1515 64.2035 62.2601 63.4564 62.3392C63.3661 62.3486 63.2825 62.3578 63.2068 62.3673C58.092 62.7371 50.4074 62.7939 50.0534 62.796C49.6564 62.7902 40.2234 62.6459 37.2632 62.3709C37.1115 62.3462 36.9476 62.3273 36.7749 62.3077C35.8987 62.2073 34.6994 62.07 33.7772 61.0556L33.7555 61.0324C33.1207 60.3711 32.728 58.7131 32.6282 57.8177C32.6096 57.6059 32.3441 54.5178 32.3441 51.5128V48.5196C32.3441 45.5594 32.6022 42.5107 32.6273 42.2247C32.746 41.3156 33.158 39.65 33.7772 38.9767C34.8038 37.8476 35.8862 37.7225 36.6022 37.6398C36.6705 37.6318 36.7343 37.6245 36.7932 37.6169C41.9824 37.2452 49.7223 37.1899 50 37.1878C50.2777 37.1896 58.0148 37.2452 63.158 37.6169C63.2211 37.6248 63.2901 37.6328 63.3643 37.6413C64.1006 37.7252 65.2136 37.8522 66.235 38.9417L66.2445 38.9517C66.8793 39.613 67.272 41.3 67.3718 42.2134C67.3895 42.4133 67.6559 45.5081 67.6559 48.5196V51.5128Z" fill="white"/>
</g>
<defs>
<clipPath id="clip0_819_295">
<rect width="40.0002" height="40" fill="white" transform="translate(30 30)"/>
</clipPath>
</defs>
</svg>
