<svg width="50" height="50" viewBox="0 0 50 50" fill="none" xmlns="http://www.w3.org/2000/svg">
<circle cx="25" cy="25" r="24.5" stroke="#9E9E9E"/>
<g clip-path="url(#clip0_623_210)">
<path d="M29.3892 24.2696C29.3026 24.2281 29.2152 24.1884 29.1269 24.1505C28.9726 21.3061 27.4183 19.6776 24.8085 19.6609C23.3028 19.6509 21.9549 20.2649 21.1148 21.5396L22.5501 22.5243C23.147 21.6186 24.0839 21.4255 24.7738 21.4255C24.7817 21.4255 24.7898 21.4255 24.7977 21.4256C25.6569 21.431 26.3054 21.6809 26.7251 22.1681C27.0305 22.5228 27.2348 23.013 27.3359 23.6317C26.5741 23.5021 25.7501 23.4624 24.8692 23.5128C22.388 23.6558 20.7928 25.1029 20.9 27.1137C20.9543 28.1337 21.4625 29.0113 22.3307 29.5845C23.0648 30.069 24.0103 30.306 24.993 30.2524C26.2906 30.1813 27.3086 29.6861 28.0188 28.7808C28.5582 28.0934 28.8993 27.2024 29.05 26.0798C29.6684 26.453 30.1268 26.9442 30.3799 27.5346C30.8103 28.5382 30.8354 30.1875 29.4897 31.5321C28.3106 32.71 26.8933 33.2195 24.7514 33.2353C22.3754 33.2177 20.5785 32.4558 19.4102 30.9705C18.3162 29.5798 17.7508 27.571 17.7297 25C17.7508 22.4289 18.3162 20.4201 19.4102 19.0295C20.5785 17.5442 22.3754 16.7823 24.7514 16.7647C27.1445 16.7825 28.9728 17.5481 30.1858 19.0404C30.7806 19.7722 31.2291 20.6926 31.5247 21.7657L33.2066 21.3169C32.8483 19.9961 32.2845 18.8579 31.5171 17.914C29.9621 16.0007 27.6877 15.0203 24.7572 15H24.7455C21.821 15.0203 19.5721 16.0044 18.0612 17.9249C16.7169 19.634 16.0234 22.012 16.0001 24.9929L16 25L16.0001 25.007C16.0234 27.9879 16.7169 30.366 18.0612 32.0751C19.5721 33.9956 21.821 34.9798 24.7455 35H24.7572C27.3573 34.9819 29.19 34.3013 30.6998 32.7928C32.6751 30.8194 32.6156 28.3457 31.9646 26.8272C31.4975 25.7382 30.607 24.8538 29.3892 24.2696ZM24.9 28.4903C23.8125 28.5516 22.6827 28.0634 22.627 27.0179C22.5857 26.2427 23.1787 25.3777 24.9668 25.2747C25.1716 25.2629 25.3725 25.2571 25.5699 25.2571C26.2194 25.2571 26.827 25.3201 27.3794 25.4409C27.1734 28.014 25.9648 28.4319 24.9 28.4903Z" fill="white"/>
</g>
<defs>
<clipPath id="clip0_623_210">
<rect width="17.2066" height="20" fill="white" transform="translate(16 15)"/>
</clipPath>
</defs>
</svg>
