<svg width="35" height="35" viewBox="0 0 35 35" fill="none" xmlns="http://www.w3.org/2000/svg">
<path d="M6.08782 13.9628L11.4238 14.2675C11.4795 14.2725 11.5325 14.2939 11.5761 14.329C11.6197 14.3641 11.652 14.4113 11.6688 14.4647L12.3918 16.9504C12.4066 17.0073 12.4031 17.0675 12.3816 17.1223C12.3601 17.177 12.3219 17.2235 12.2723 17.2552L9.41607 18.994C8.77521 19.3823 8.26184 19.9494 7.93911 20.6257C7.61638 21.302 7.49837 22.0578 7.5996 22.8002L7.95211 27.0128C8.01531 27.7011 8.3446 28.3376 8.86992 28.7869C9.39524 29.2361 10.0751 29.4626 10.7649 29.4182C11.4547 29.3739 12.0999 29.0621 12.5633 28.5492C13.0268 28.0364 13.2718 27.363 13.2462 26.6722L13.067 23.577C13.0627 23.4565 13.0931 23.3373 13.1545 23.2335C13.2159 23.1297 13.3058 23.0457 13.4135 22.9915C14.335 22.3936 16.2169 21.1847 17.1302 20.5953C18.5717 22.1564 22.3174 26.1889 23.8047 27.8017C26.0713 30.022 29.533 27.0549 27.7602 24.4792C26.8436 23.3578 22.5572 18.2512 21.5459 17.0341C21.5171 16.9999 21.4971 16.9591 21.4877 16.9153C21.4783 16.8716 21.4798 16.8261 21.4922 16.7831L22.1614 14.4528C22.1775 14.3995 22.2097 14.3525 22.2535 14.3183C22.2974 14.284 22.3508 14.2642 22.4064 14.2616L27.8977 14.0046C30.8227 13.8565 30.9748 9.41629 28.0829 9.0272L20.2254 8.04724C19.8682 8.00611 19.5067 8.07051 19.1857 8.23247C18.6353 8.56304 18.0133 8.75577 17.3724 8.79425C16.7315 8.83274 16.0909 8.71585 15.5049 8.45352C15.0411 8.16256 14.4977 8.02464 13.9513 8.05925L5.88468 9.2124C5.30239 9.30168 4.77353 9.60272 4.39947 10.0578C4.02542 10.5129 3.83249 11.0901 3.85765 11.6786C3.88282 12.2672 4.12432 12.8257 4.53586 13.2473C4.94741 13.6688 5.50003 13.9236 6.08782 13.9628Z" fill="#C8952E"/>
<path d="M14.4716 6.85963C16.8683 9.03528 20.973 7.1787 20.907 3.90176C20.9075 3.24777 20.7434 2.60415 20.43 2.03017C20.1165 1.45619 19.6637 0.970273 19.1133 0.617158C18.5628 0.264043 17.9324 0.0550736 17.28 0.00948498C16.6275 -0.0361036 15.9742 0.0831535 15.3799 0.356279C14.7857 0.629404 14.2697 1.04762 13.8795 1.57243C13.4893 2.09725 13.2373 2.71179 13.1469 3.3595C13.0564 4.0072 13.1303 4.66726 13.3618 5.27891C13.5933 5.89056 13.975 6.43414 14.4716 6.85963Z" fill="#C8952E"/>
<path d="M28.5103 23.5009C31.5729 27.2429 26.4525 31.9886 22.9532 28.6456C22.5495 28.212 17.1797 22.4168 16.9301 22.1445C16.2979 22.5502 14.9208 23.4445 14.2771 23.8535L14.4325 26.6021C14.4826 27.6105 14.1344 28.5982 13.4629 29.3521C12.7915 30.1061 11.8506 30.566 10.8432 30.6327C9.83576 30.6993 8.84251 30.3674 8.0776 29.7084C7.31269 29.0494 6.8374 28.1162 6.75422 27.11C6.68692 26.2817 6.49035 23.9513 6.42558 23.1544C3.07943 24.2837 1 25.9508 1 27.845C1.3832 36.0546 32.6285 36.0484 33.0037 27.8448C33.0037 26.1361 31.3067 24.6124 28.5103 23.5009Z" fill="#C8952E"/>
</svg>
