<svg width="35" height="35" viewBox="0 0 35 35" fill="none" xmlns="http://www.w3.org/2000/svg">
<path d="M15.3015 5.49219H10.9082C10.3419 5.49219 9.88281 5.95129 9.88281 6.51758V10.9108C9.88281 11.4771 10.3419 11.9362 10.9082 11.9362H15.3015C15.8677 11.9362 16.3268 11.4771 16.3268 10.9108V6.51758C16.3268 5.95129 15.8677 5.49219 15.3015 5.49219Z" fill="#C8952E"/>
<path d="M15.2292 19.6999V15.3066C15.2292 14.7404 14.7701 14.2812 14.2038 14.2812H9.81055C9.24426 14.2812 8.78516 14.7404 8.78516 15.3066V19.6999C8.78516 20.2662 9.24426 20.7253 9.81055 20.7253H14.2038C14.7701 20.7253 15.2292 20.2662 15.2292 19.6999Z" fill="#C8952E"/>
<path d="M15.3015 23.0664H10.9082C10.3419 23.0664 9.88281 23.5255 9.88281 24.0918V28.485C9.88281 29.0513 10.3419 29.5104 10.9082 29.5104H15.3015C15.8677 29.5104 16.3268 29.0513 16.3268 28.485V24.0918C16.3268 23.5255 15.8677 23.0664 15.3015 23.0664Z" fill="#C8952E"/>
<path d="M5.41864 18.6719H1.02539C0.459102 18.6719 0 19.131 0 19.6973V24.0905C0 24.6568 0.459102 25.1159 1.02539 25.1159H5.41864C5.98493 25.1159 6.44403 24.6568 6.44403 24.0905V19.6973C6.44403 19.131 5.98493 18.6719 5.41864 18.6719Z" fill="#C8952E"/>
<path d="M5.41864 9.88672H1.02539C0.459102 9.88672 0 10.3458 0 10.9121V15.3054C0 15.8717 0.459102 16.3308 1.02539 16.3308H5.41864C5.98493 16.3308 6.44403 15.8717 6.44403 15.3054V10.9121C6.44403 10.3458 5.98493 9.88672 5.41864 9.88672Z" fill="#C8952E"/>
<path d="M34.6428 21.1734L32.1309 19.0191C32.2705 18.018 32.2705 16.9858 32.1309 15.9848L34.6428 13.8304C35.0174 13.5092 35.11 12.9667 34.8633 12.5394L32.3921 8.25936C32.1454 7.83204 31.6293 7.64111 31.1637 7.80477L28.0398 8.90385C27.2364 8.27439 26.357 7.76566 25.4144 7.38483L24.8045 4.13325C24.7135 3.64831 24.2901 3.29688 23.7967 3.29688H19.6973C19.131 3.29688 18.6719 3.75598 18.6719 4.32227V12.2564C18.6719 12.5823 18.8267 12.8887 19.0891 13.0819C19.3514 13.2752 19.69 13.3323 20.0011 13.2357C22.8053 12.3216 25.8392 14.5453 25.7916 17.502C25.8394 20.458 22.805 22.6829 20.0011 21.7681C19.6899 21.6715 19.3514 21.7287 19.0891 21.9219C18.8268 22.1152 18.6719 22.4216 18.6719 22.7474V30.6816C18.6719 31.2479 19.131 31.707 19.6973 31.707H23.7967C24.2901 31.707 24.7136 31.3556 24.8045 30.8707L25.4144 27.6191C26.357 27.2382 27.2364 26.7294 28.0398 26.1001L31.1637 27.1991C31.6293 27.3629 32.1453 27.1719 32.3921 26.7445L34.8633 22.4645C35.1101 22.0371 35.0174 21.4947 34.6428 21.1734Z" fill="#C8952E"/>
</svg>
