<svg width="35" height="35" viewBox="0 0 35 35" fill="none" xmlns="http://www.w3.org/2000/svg">
<g clip-path="url(#clip0_992_1255)">
<path d="M29.031 8.78516H28.2633V14.753C28.2633 19.1744 24.6662 22.7716 20.2447 22.7716H8.78516V23.5396C8.78516 26.8302 11.4624 29.5071 14.753 29.5071H27.0123L33.3171 34.7612C33.5048 34.9177 33.7382 34.9988 33.9737 34.9988C34.5374 34.9988 34.9988 34.5414 34.9988 33.9734V14.753C34.9988 11.4573 32.3326 8.78516 29.031 8.78516Z" fill="#C8952E"/>
<path d="M26.2137 14.7541V5.96783C26.2137 2.66628 23.5418 0 20.2459 0H5.96783C2.66628 0 0 2.67189 0 5.96783V25.1883C0 25.756 0.461426 26.2137 1.02512 26.2137C1.26064 26.2137 1.49403 26.1325 1.68175 25.9758L7.98656 20.722H20.2459C23.5365 20.722 26.2137 18.045 26.2137 14.7541ZM13.1068 16.3288C12.5407 16.3288 12.0815 15.8695 12.0815 15.3034C12.0815 14.7373 12.5407 14.278 13.1068 14.278C13.6727 14.278 14.1322 14.7373 14.1322 15.3034C14.1322 15.8695 13.6727 16.3288 13.1068 16.3288ZM14.1322 11.7939V12.0086C14.1322 12.5747 13.6729 13.0339 13.1068 13.0339C12.5405 13.0339 12.0815 12.5747 12.0815 12.0086V10.9103C12.0815 10.3439 12.5405 9.88487 13.1068 9.88487C14.0553 9.88487 14.827 9.11289 14.827 8.16441C14.827 7.21565 14.0553 6.44394 13.1068 6.44394C12.6465 6.44394 12.2147 6.62285 11.89 6.94756C11.5653 7.27226 11.3864 7.70405 11.3864 8.16307C11.3864 8.72944 10.9274 9.18926 10.361 9.18926C9.79462 9.18926 9.33559 8.73051 9.33559 8.16441V8.16307C9.33559 7.15637 9.72786 6.20949 10.4398 5.49759C11.1519 4.78542 12.0985 4.39316 13.1055 4.39316C15.1862 4.39316 16.8778 6.08505 16.8778 8.16441C16.8778 9.88861 15.7149 11.3463 14.1322 11.7939Z" fill="#C8952E"/>
</g>
<defs>
<clipPath id="clip0_992_1255">
<rect width="35" height="35" fill="white"/>
</clipPath>
</defs>
</svg>
