<svg width="35" height="35" viewBox="0 0 35 35" fill="none" xmlns="http://www.w3.org/2000/svg">
<g clip-path="url(#clip0_992_1264)">
<path d="M34.1003 14.441L31.4844 14.1137C31.1784 12.9477 30.7172 11.836 30.1071 10.7939L31.727 8.71112C32.0447 8.3026 32.0085 7.72149 31.6426 7.35565L28.741 4.45414C28.3751 4.08824 27.7941 4.05212 27.3856 4.36973L25.3026 5.98965C24.2602 5.37947 23.1484 4.91828 21.9829 4.61229L21.6556 1.99638C21.5914 1.48292 21.1549 1.09766 20.6375 1.09766H17.8047C18.2564 1.93762 18.5132 2.89735 18.5132 3.91599V9.89161C28.7054 10.1874 28.7 24.8364 18.5132 25.1295V31.1051C18.5132 32.1238 18.2564 33.0835 17.8047 33.9234H20.6375C21.1549 33.9234 21.5914 33.5382 21.6556 33.0247L21.9829 30.4088C23.1488 30.1028 24.2606 29.6416 25.3027 29.0315L27.3855 30.6514C27.794 30.969 28.3751 30.9329 28.741 30.567L31.6425 27.6654C32.0084 27.2995 32.0446 26.7184 31.7269 26.31L30.107 24.2271C30.7172 23.1846 31.1784 22.073 31.4843 20.9074L34.1002 20.5801C34.6136 20.516 34.9989 20.0795 34.9989 19.562V15.4592C34.999 14.9416 34.6137 14.5052 34.1003 14.441Z" fill="#C8952E"/>
<path d="M12.5445 0C7.35331 0.197967 7.35721 7.63878 12.5446 7.83476C13.1112 7.83476 13.5706 8.29418 13.5706 8.86085C13.5706 9.42753 13.1112 9.88694 12.5445 9.88694C9.60681 9.88694 7.15815 7.7539 6.66549 4.95534C2.90411 4.67364 0.959045 9.3949 3.82526 11.8422C4.13124 12.1032 4.25656 12.519 4.14568 12.9056C4.03486 13.2923 3.70829 13.5785 3.31051 13.6377C-1.10497 14.3981 -1.10203 20.6273 3.31051 21.3862C3.70829 21.4454 4.03486 21.7317 4.14568 22.1183C4.2565 22.5049 4.13124 22.9206 3.82519 23.1817C0.958225 25.6309 2.90554 30.3503 6.66549 30.0686C7.15822 27.27 9.60688 25.137 12.5445 25.137C13.1112 25.137 13.5706 25.5964 13.5706 26.1631C13.5706 26.7298 13.1112 27.1892 12.5445 27.1892C10.3845 27.1892 8.6271 28.9465 8.6271 31.1066C8.82336 36.2952 16.2654 36.2961 16.4619 31.1066V18.5381H13.1624C11.0024 18.5381 9.24501 20.2953 9.24501 22.4555C9.24501 23.0222 8.7856 23.4816 8.21892 23.4816C7.65224 23.4816 7.19283 23.0222 7.19283 22.4555C7.19283 20.4014 8.23561 18.5865 9.81956 17.512C8.23561 16.4374 7.19283 14.6225 7.19283 12.5685C7.19283 12.0018 7.65224 11.5424 8.21892 11.5424C8.7856 11.5424 9.24501 12.0018 9.24501 12.5685C9.24501 14.7285 11.0024 16.4859 13.1624 16.4859H16.4619V3.91741C16.4619 1.75735 14.7046 0 12.5445 0Z" fill="#C8952E"/>
<path d="M24.1569 17.5127C24.1594 14.4183 21.6106 11.8998 18.5156 11.9459V23.0794C21.6106 23.1256 24.1593 20.6071 24.1569 17.5127Z" fill="#C8952E"/>
</g>
<defs>
<clipPath id="clip0_992_1264">
<rect width="35" height="35" fill="white"/>
</clipPath>
</defs>
</svg>
