<svg width="35" height="35" viewBox="0 0 35 35" fill="none" xmlns="http://www.w3.org/2000/svg">
<g clip-path="url(#clip0_992_1270)">
<path d="M23.6974 34.9987H11.3016C10.762 34.9987 10.3026 34.6049 10.221 34.0712L8.76265 24.592C8.71452 24.277 8.80494 23.9547 9.01348 23.7127C9.22202 23.4706 9.5239 23.332 9.84327 23.332H25.1558C25.4751 23.332 25.7785 23.472 25.9856 23.7141C26.1926 23.9562 26.2845 24.277 26.2364 24.5935L24.7781 34.0727C24.6964 34.6049 24.237 34.9987 23.6974 34.9987Z" fill="#C8952E"/>
<path d="M17.5013 11.6667C20.723 11.6667 23.3346 9.05499 23.3346 5.83333C23.3346 2.61167 20.723 0 17.5013 0C14.2796 0 11.668 2.61167 11.668 5.83333C11.668 9.05499 14.2796 11.6667 17.5013 11.6667Z" fill="#C8952E"/>
<path d="M33.8599 18.9583C33.6281 15.7252 31.8897 12.7327 29.167 10.9229C29.1597 9.72125 28.1841 8.75 26.981 8.75C25.7735 8.75 24.7935 9.73 24.7935 10.9375C24.7935 12.145 25.7735 13.125 26.981 13.125C27.3806 13.125 27.7495 13.0098 28.0718 12.8231C30.1237 14.2363 31.4493 16.501 31.6724 18.9583H29.081C28.556 15.6625 25.6977 13.125 22.2414 13.125H12.7622C9.30599 13.125 6.44766 15.6625 5.92266 18.9583H1.09558C0.3212 18.9583 -0.179008 19.7429 0.0601585 20.4313L2.97683 28.4521C3.13724 28.875 3.54558 29.1667 4.01224 29.1667H6.52058L5.87891 25.0396C5.70391 23.8729 6.03933 22.7063 6.79766 21.8167C7.44808 21.0365 8.5987 20.4167 9.84558 20.4167H25.1581C26.2591 20.4167 27.3704 20.8702 28.206 21.8167C28.9643 22.7063 29.2997 23.8729 29.1247 25.0396L28.4831 29.1667H30.9914C31.4581 29.1667 31.8664 28.875 32.0268 28.4521L34.9435 20.4313C35.1739 19.7677 34.7335 18.9583 33.8599 18.9583Z" fill="#C8952E"/>
</g>
<defs>
<clipPath id="clip0_992_1270">
<rect width="35" height="35" fill="white"/>
</clipPath>
</defs>
</svg>
