<svg width="35" height="35" viewBox="0 0 35 35" fill="none" xmlns="http://www.w3.org/2000/svg">
<g clip-path="url(#clip0_992_1283)">
<path d="M10.3261 3.80762C10.3261 1.7081 8.61796 0 6.51844 0C1.46709 0.20918 1.46853 7.40688 6.51844 7.61523C8.61803 7.61523 10.3261 5.90714 10.3261 3.80762Z" fill="#C8952E"/>
<path d="M13.0339 15.303V14.1318C12.6749 5.48398 0.355811 5.49068 0 14.1317V15.3029C0 15.8692 0.459102 16.3283 1.02539 16.3283H12.0085C12.5748 16.3284 13.0339 15.8693 13.0339 15.303Z" fill="#C8952E"/>
<path d="M32.2909 3.80762C32.2909 1.7081 30.5828 0 28.4833 0C23.4319 0.20918 23.4334 7.40688 28.4833 7.61523C30.5828 7.61523 32.2909 5.90714 32.2909 3.80762Z" fill="#C8952E"/>
<path d="M28.4817 7.61719C24.8883 7.61719 21.9648 10.5407 21.9648 14.1341V15.3053C21.9648 15.8716 22.4239 16.3307 22.9902 16.3307H33.9733C34.5395 16.3307 34.9987 15.8716 34.9987 15.3053V14.1341C34.9987 10.5407 32.0752 7.61719 28.4817 7.61719Z" fill="#C8952E"/>
<path d="M6.44484 18.5977C6.44484 18.5245 6.44621 18.4517 6.44758 18.3789H4.3968C4.31518 22.7744 6.44594 26.7455 9.74551 29.1638C10.0403 28.5381 10.4086 27.9537 10.8393 27.4215C8.16996 25.4032 6.44484 22.202 6.44484 18.5977Z" fill="#C8952E"/>
<path d="M12.9737 8.50967C15.701 7.23244 19.2967 7.23244 22.0239 8.50967C22.5103 7.95192 23.0674 7.45755 23.6813 7.04069C20.0518 4.99682 14.9459 4.99689 11.3164 7.04069C11.9303 7.45755 12.4874 7.95199 12.9737 8.50967Z" fill="#C8952E"/>
<path d="M28.5518 18.3789C28.6315 22.0422 26.8839 25.3698 24.1602 27.4215C24.5908 27.9536 24.9591 28.5381 25.2539 29.1638C28.5533 26.7458 30.6843 22.7743 30.6026 18.3789H28.5518Z" fill="#C8952E"/>
<path d="M21.3065 22.4795C21.3065 20.38 19.5984 18.6719 17.4989 18.6719C12.4476 18.8811 12.449 26.0787 17.4989 26.2871C19.5984 26.2871 21.3065 24.5791 21.3065 22.4795Z" fill="#C8952E"/>
<path d="M17.5013 26.2852C13.9078 26.2852 10.9844 29.2087 10.9844 32.8021V33.9733C10.9844 34.5396 11.4435 34.9987 12.0098 34.9987H22.9929C23.5592 34.9987 24.0183 34.5396 24.0183 33.9733V32.8021C24.0182 29.2087 21.0947 26.2852 17.5013 26.2852Z" fill="#C8952E"/>
</g>
<defs>
<clipPath id="clip0_992_1283">
<rect width="35" height="35" fill="white"/>
</clipPath>
</defs>
</svg>
