<svg width="35" height="35" viewBox="0 0 35 35" fill="none" xmlns="http://www.w3.org/2000/svg">
<path d="M20.6797 0.605469V6.63203H26.6447L20.6797 0.605469Z" fill="#C8952E"/>
<path d="M25.125 28.6953V33.3608C25.125 34.2666 25.8599 35.0015 26.7656 35.0015C27.6714 35.0015 28.4062 34.2666 28.4062 33.3608V28.7076C27.8847 28.8006 27.348 28.8491 26.7998 28.8491C26.2276 28.8491 25.6685 28.7965 25.125 28.6953Z" fill="#C8952E"/>
<path d="M26.7979 26.7988C30.7054 26.7988 33.873 23.6312 33.873 19.7236C33.873 15.8161 30.7054 12.6484 26.7979 12.6484C22.8903 12.6484 19.7227 15.8161 19.7227 19.7236C19.7227 23.6312 22.8903 26.7988 26.7979 26.7988Z" fill="#C8952E"/>
<path d="M6.46094 6.49219H13.1602V11.0039H6.46094V6.49219Z" fill="#C8952E"/>
<path d="M17.9131 21.8066H5.43555C4.86926 21.8066 4.41016 21.3475 4.41016 20.7812C4.41016 20.215 4.86926 19.7559 5.43555 19.7559H17.6725C17.6724 19.7444 17.6719 19.7331 17.6719 19.7217C17.6719 18.9311 17.773 18.1637 17.9629 17.4316H5.43555C4.86926 17.4316 4.41016 16.9725 4.41016 16.4062C4.41016 15.84 4.86926 15.3809 5.43555 15.3809H18.7721C20.3184 12.5333 23.3361 10.5957 26.7979 10.5957C26.9469 10.5957 27.0952 10.5991 27.2422 10.6066V8.68164H19.6543C19.0883 8.68164 18.6289 8.22227 18.6289 7.65625V0H4.20508C2.50908 0 1.12891 1.38018 1.12891 3.07617V29.668C1.12891 31.364 2.50908 32.7441 4.20508 32.7441H23.0723V28.052C20.5077 26.9003 18.5682 24.5982 17.9131 21.8066ZM4.41016 5.46875C4.41016 4.90246 4.86926 4.44336 5.43555 4.44336H14.1855C14.7518 4.44336 15.2109 4.90246 15.2109 5.46875V12.0312C15.2109 12.5975 14.7518 13.0566 14.1855 13.0566H5.43555C4.86926 13.0566 4.41016 12.5975 4.41016 12.0312V5.46875ZM12.5449 26.1816H5.43555C4.86926 26.1816 4.41016 25.7225 4.41016 25.1562C4.41016 24.59 4.86926 24.1309 5.43555 24.1309H12.5449C13.1112 24.1309 13.5703 24.59 13.5703 25.1562C13.5703 25.7225 13.1112 26.1816 12.5449 26.1816Z" fill="#C8952E"/>
</svg>
