<svg width="35" height="35" viewBox="0 0 35 35" fill="none" xmlns="http://www.w3.org/2000/svg">
<g clip-path="url(#clip0_992_1303)">
<path d="M8.66901 21.3539V14.6678C8.66901 14.1853 8.73817 13.7148 8.86768 13.2656H4.35916C3.62804 13.2656 2.965 13.5631 2.48489 14.0432C2.00477 14.5233 1.70703 15.1866 1.70703 15.9175V21.2378C1.70703 21.8853 1.94335 22.4816 2.33482 22.9454C2.53829 23.1868 2.78449 23.3914 3.06167 23.5478V31.2807C3.06167 31.846 3.51989 32.3042 4.08492 32.3042H10.3713V25.1556C9.29652 24.1852 8.66901 22.8028 8.66901 21.3539Z" fill="#C8952E"/>
<path d="M7.23573 12.0574C9.44646 12.0574 11.2449 10.259 11.2449 8.04823C11.2449 5.8375 9.44646 4.03906 7.23573 4.03906C5.025 4.03906 3.22656 5.8375 3.22656 8.04823C3.22656 10.259 5.025 12.0574 7.23573 12.0574Z" fill="#C8952E"/>
<path d="M21.0175 11.5977H13.7888C12.9428 11.5977 12.1751 11.9424 11.6192 12.4981C11.0632 13.054 10.7188 13.8217 10.7188 14.668V21.3541C10.7188 22.1039 10.9922 22.7944 11.4448 23.3309C11.7132 23.6489 12.0453 23.912 12.4211 24.0999V33.9757C12.4211 34.541 12.8793 34.9993 13.4446 34.9993H21.362C21.9273 34.9993 22.3855 34.541 22.3855 33.9757V24.0999C22.7612 23.912 23.0934 23.6489 23.3615 23.3309C23.8144 22.7944 24.0878 22.1042 24.0878 21.3541V14.668C24.0878 13.8217 23.7433 13.054 23.1874 12.4983C22.6314 11.9424 21.8637 11.5977 21.0175 11.5977Z" fill="#C8952E"/>
<path d="M17.4008 9.55162C20.0342 9.55162 22.1766 7.40925 22.1766 4.77581C22.1766 2.14237 20.0342 0 17.4008 0C14.7674 0 12.625 2.14237 12.625 4.77581C12.625 7.40925 14.7674 9.55162 17.4008 9.55162Z" fill="#C8952E"/>
<path d="M32.4534 14.0432C31.9733 13.5631 31.3102 13.2656 30.5791 13.2656H25.9333C26.0626 13.7148 26.132 14.1853 26.132 14.6678V21.3539C26.132 22.8026 25.5045 24.1852 24.4297 25.1556V32.2968C24.47 32.3016 24.5114 32.3042 24.5533 32.3042H30.8531C31.4184 32.3042 31.8766 31.846 31.8766 31.2807V23.5478C32.1535 23.3916 32.3997 23.1868 32.6034 22.9454C32.9949 22.4816 33.2312 21.8853 33.2312 21.2378V15.9175C33.2312 15.1866 32.9335 14.5233 32.4534 14.0432Z" fill="#C8952E"/>
<path d="M27.7045 12.0574C29.9152 12.0574 31.7137 10.259 31.7137 8.04823C31.7137 5.8375 29.9152 4.03906 27.7045 4.03906C25.494 4.03906 23.6953 5.8375 23.6953 8.04823C23.6953 10.259 25.494 12.0574 27.7045 12.0574Z" fill="#C8952E"/>
</g>
<defs>
<clipPath id="clip0_992_1303">
<rect width="35" height="35" fill="white"/>
</clipPath>
</defs>
</svg>
