<svg width="35" height="35" viewBox="0 0 35 35" fill="none" xmlns="http://www.w3.org/2000/svg">
<path d="M17.4878 8.20313C15.6487 8.20278 13.8507 8.74784 12.3214 9.76937C10.792 10.7909 9.59989 12.243 8.89583 13.9421C8.19177 15.6411 8.00737 17.5108 8.36595 19.3147C8.72454 21.1186 9.60999 22.7756 10.9103 24.0762C12.2107 25.3768 13.8675 26.2626 15.6713 26.6215C17.4751 26.9805 19.3448 26.7965 21.044 26.0927C22.7432 25.389 24.1956 24.1972 25.2174 22.668C26.2393 21.1389 26.7847 19.341 26.7847 17.5019C26.7822 15.0368 25.8019 12.6734 24.059 10.9301C22.3161 9.18689 19.9529 8.20617 17.4878 8.20313Z" fill="#C8952E"/>
<path d="M32.268 15.8594H30.0823C29.6471 15.8594 29.2297 16.0323 28.922 16.34C28.6143 16.6477 28.4414 17.0651 28.4414 17.5003C28.4414 17.9355 28.6143 18.3528 28.922 18.6606C29.2297 18.9683 29.6471 19.1412 30.0823 19.1412H32.268C32.7032 19.1412 33.1205 18.9683 33.4283 18.6606C33.736 18.3528 33.9089 17.9355 33.9089 17.5003C33.9089 17.0651 33.736 16.6477 33.4283 16.34C33.1205 16.0323 32.7032 15.8594 32.268 15.8594Z" fill="#C8952E"/>
<path d="M17.4875 28.4336C17.0526 28.4342 16.6357 28.6074 16.3283 28.915C16.0209 29.2226 15.848 29.6396 15.8477 30.0745V32.2622C15.8477 32.6971 16.0204 33.1142 16.3279 33.4217C16.6354 33.7292 17.0525 33.9019 17.4873 33.9019C17.9222 33.9019 18.3393 33.7292 18.6468 33.4217C18.9543 33.1142 19.127 32.6971 19.127 32.2622V30.0745C19.1267 29.6396 18.9539 29.2226 18.6465 28.915C18.3392 28.6074 17.9223 28.4343 17.4875 28.4336Z" fill="#C8952E"/>
<path d="M6.55983 17.5003C6.55946 17.0654 6.38661 16.6484 6.07919 16.3408C5.77177 16.0332 5.3549 15.86 4.92 15.8594H2.73465C2.29946 15.8594 1.88209 16.0323 1.57436 16.34C1.26663 16.6477 1.09375 17.0651 1.09375 17.5003C1.09375 17.9355 1.26663 18.3528 1.57436 18.6606C1.88209 18.9683 2.29946 19.1412 2.73465 19.1412H4.92001C5.3549 19.1405 5.77178 18.9674 6.0792 18.6598C6.38661 18.3522 6.55946 17.9352 6.55983 17.5003Z" fill="#C8952E"/>
<path d="M17.4872 6.5621C17.9221 6.56144 18.339 6.38832 18.6464 6.0807C18.9538 5.77309 19.1267 5.35611 19.127 4.92122V2.73344C19.127 2.29857 18.9543 1.88151 18.6468 1.574C18.3393 1.2665 17.9222 1.09375 17.4873 1.09375C17.0525 1.09375 16.6354 1.2665 16.3279 1.574C16.0204 1.88151 15.8477 2.29857 15.8477 2.73344V4.92122C15.848 5.35608 16.0208 5.77306 16.3281 6.08068C16.6355 6.38829 17.0524 6.56143 17.4872 6.5621Z" fill="#C8952E"/>
<path d="M27.5436 9.76634L29.0906 8.21938C29.2433 8.06723 29.3646 7.88645 29.4474 7.68738C29.5302 7.48832 29.5729 7.27488 29.5731 7.05928C29.5733 6.84368 29.531 6.63016 29.4486 6.43093C29.3662 6.2317 29.2453 6.05068 29.0929 5.89823C28.9404 5.74578 28.7594 5.62489 28.5602 5.54248C28.3609 5.46007 28.1474 5.41776 27.9318 5.41797C27.7162 5.41818 27.5028 5.46091 27.3037 5.54371C27.1047 5.62651 26.9239 5.74775 26.7717 5.9005L25.2247 7.4475C25.072 7.59965 24.9507 7.78043 24.8679 7.9795C24.7851 8.17857 24.7424 8.39201 24.7422 8.6076C24.742 8.8232 24.7843 9.03673 24.8667 9.23595C24.9491 9.43518 25.07 9.6162 25.2224 9.76865C25.3749 9.9211 25.5559 10.042 25.7551 10.1244C25.9544 10.2068 26.1679 10.2491 26.3835 10.2489C26.5991 10.2487 26.8125 10.2059 27.0116 10.1231C27.2107 10.0403 27.3914 9.9191 27.5436 9.76634Z" fill="#C8952E"/>
<path d="M27.5434 25.2401C27.3912 25.0874 27.2104 24.9662 27.0114 24.8835C26.8123 24.8007 26.5989 24.758 26.3833 24.7578C26.1678 24.7576 25.9543 24.7999 25.7551 24.8824C25.5559 24.9648 25.3749 25.0856 25.2224 25.2381C25.07 25.3905 24.9491 25.5715 24.8667 25.7707C24.7843 25.9699 24.742 26.1834 24.7422 26.3989C24.7424 26.6145 24.7851 26.8279 24.8678 27.027C24.9506 27.226 25.0718 27.4068 25.2245 27.559L26.7715 29.1059C26.9236 29.2586 27.1044 29.3798 27.3035 29.4626C27.5025 29.5454 27.7159 29.588 27.9315 29.5882C28.1471 29.5884 28.3606 29.5461 28.5598 29.4637C28.759 29.3813 28.9399 29.2604 29.0924 29.108C29.2448 28.9556 29.3657 28.7746 29.4481 28.5754C29.5305 28.3762 29.5728 28.1627 29.5726 27.9471C29.5724 27.7315 29.5298 27.5181 29.447 27.3191C29.3642 27.12 29.243 26.9392 29.0903 26.7871L27.5434 25.2401Z" fill="#C8952E"/>
<path d="M7.43208 25.2401L5.88511 26.7871C5.73231 26.9392 5.61102 27.12 5.52818 27.3191C5.44534 27.5182 5.40258 27.7316 5.40234 27.9473C5.40211 28.1629 5.44441 28.3764 5.52682 28.5757C5.60922 28.7749 5.73012 28.956 5.88259 29.1085C6.03506 29.2609 6.21611 29.3818 6.41536 29.4642C6.61462 29.5466 6.82817 29.5889 7.04379 29.5887C7.25942 29.5885 7.47288 29.5457 7.67195 29.4629C7.87103 29.38 8.05181 29.2587 8.20395 29.1059L9.75095 27.559C9.90365 27.4068 10.0248 27.226 10.1076 27.027C10.1904 26.8279 10.2331 26.6145 10.2332 26.3989C10.2334 26.1834 10.1911 25.9699 10.1087 25.7707C10.0263 25.5715 9.90542 25.3905 9.75299 25.2381C9.60056 25.0856 9.41956 24.9648 9.22037 24.8824C9.02117 24.7999 8.80768 24.7576 8.59211 24.7578C8.37654 24.758 8.16312 24.8007 7.96407 24.8835C7.76502 24.9662 7.58424 25.0874 7.43208 25.2401Z" fill="#C8952E"/>
<path d="M7.43283 9.76344C7.58504 9.91591 7.76581 10.0369 7.96481 10.1195C8.1638 10.202 8.37711 10.2446 8.59256 10.2447C8.808 10.2448 9.02135 10.2024 9.22042 10.12C9.41948 10.0376 9.60035 9.91676 9.75269 9.76442C9.90503 9.61207 10.0259 9.4312 10.1083 9.23214C10.1907 9.03308 10.233 8.81973 10.2329 8.60428C10.2329 8.38884 10.1903 8.17552 10.1077 7.97653C10.0252 7.77754 9.90418 7.59677 9.75171 7.44455L8.20471 5.89755C8.0526 5.7446 7.87181 5.62316 7.67269 5.54019C7.47357 5.45722 7.26003 5.41436 7.04432 5.41406C6.82861 5.41376 6.61496 5.45603 6.41561 5.53844C6.21626 5.62085 6.03513 5.74179 5.88259 5.89432C5.73006 6.04686 5.60913 6.22799 5.52672 6.42734C5.44431 6.62669 5.40204 6.84034 5.40235 7.05605C5.40265 7.27177 5.44551 7.4853 5.52848 7.68442C5.61145 7.88354 5.73289 8.06433 5.88585 8.21644L7.43283 9.76344Z" fill="#C8952E"/>
</svg>
