<svg width="20" height="20" viewBox="0 0 20 20" fill="none" xmlns="http://www.w3.org/2000/svg">
<path d="M9.27065 15.5591C9.36671 15.6551 9.48075 15.7313 9.60626 15.7833C9.73178 15.8353 9.8663 15.8621 10.0022 15.8621C10.138 15.8621 10.2725 15.8353 10.398 15.7833C10.5236 15.7313 10.6376 15.6551 10.7337 15.5591L14.6349 11.6578C14.8289 11.4638 14.9379 11.2007 14.9379 10.9263C14.9379 10.652 14.8289 10.3888 14.6349 10.1948C14.4409 10.0008 14.1778 9.89184 13.9034 9.89184C13.6291 9.89184 13.3659 10.0008 13.1719 10.1948L11.0366 12.3301V1.03448C11.0366 0.760121 10.9276 0.496996 10.7336 0.302993C10.5396 0.10899 10.2765 0 10.0022 0C9.72779 0 9.46467 0.10899 9.27067 0.302993C9.07666 0.496996 8.96767 0.760121 8.96767 1.03448V12.3301L6.83237 10.1948C6.63837 10.0008 6.37524 9.89184 6.10088 9.89184C5.82652 9.89184 5.5634 10.0008 5.3694 10.1948C5.17539 10.3888 5.06641 10.652 5.06641 10.9263C5.06641 11.2007 5.17539 11.4638 5.3694 11.6578L9.27065 15.5591Z" fill="#96202A"/>
<path d="M18.9655 8.96484C18.6912 8.96484 18.428 9.07383 18.234 9.26784C18.04 9.46184 17.931 9.72496 17.931 9.99933V17.9304H2.06897V9.99933C2.06897 9.72496 1.95998 9.46184 1.76597 9.26784C1.57197 9.07383 1.30884 8.96484 1.03448 8.96484C0.760121 8.96484 0.496996 9.07383 0.302993 9.26784C0.10899 9.46184 0 9.72496 0 9.99933V18.2752C0 18.7325 0.18165 19.171 0.504988 19.4943C0.828327 19.8177 1.26687 19.9993 1.72414 19.9993H18.2759C18.7331 19.9993 19.1717 19.8177 19.495 19.4943C19.8183 19.171 20 18.7325 20 18.2752V9.99933C20 9.72496 19.891 9.46184 19.697 9.26784C19.503 9.07383 19.2399 8.96484 18.9655 8.96484Z" fill="#96202A"/>
</svg>
